<svg width="16" height="16" viewBox="0 0 16 16" fill="none" xmlns="http://www.w3.org/2000/svg">
<g clip-path="url(#clip0_5003_9432)">
<path fill-rule="evenodd" clip-rule="evenodd" d="M8.47221 10.4713C8.34719 10.5963 8.17766 10.6665 8.00088 10.6665C7.8241 10.6665 7.65457 10.5963 7.52955 10.4713L3.75821 6.7C3.69454 6.6385 3.64375 6.56494 3.60881 6.4836C3.57387 6.40227 3.55548 6.31479 3.55471 6.22627C3.55394 6.13775 3.57081 6.04996 3.60433 5.96803C3.63785 5.8861 3.68735 5.81166 3.74995 5.74907C3.81255 5.68647 3.88698 5.63697 3.96891 5.60345C4.05084 5.56993 4.13863 5.55306 4.22715 5.55383C4.31567 5.5546 4.40315 5.57299 4.48448 5.60793C4.56582 5.64287 4.63938 5.69366 4.70088 5.75733L8.00088 9.05733L11.3009 5.75733C11.4266 5.63589 11.595 5.5687 11.7698 5.57022C11.9446 5.57173 12.1118 5.64185 12.2354 5.76545C12.359 5.88906 12.4291 6.05627 12.4307 6.23106C12.4322 6.40586 12.365 6.57426 12.2435 6.7L8.47221 10.4713Z" fill="white"/>
</g>
<defs>
<clipPath id="clip0_5003_9432">
<rect width="16" height="16" fill="white"/>
</clipPath>
</defs>
</svg>
