<svg width="19" height="18" viewBox="0 0 19 18" fill="none" xmlns="http://www.w3.org/2000/svg">
<g clip-path="url(#clip0_5003_9425)">
<path d="M0 0H19V18H0V0Z" fill="#012169"/>
<path d="M19 0V2.25L11.9492 9L19 15.5742V18H16.5137L9.42578 11.3906L2.52344 18H0V15.6094L6.90234 9.03516L0 2.60156V0H2.30078L9.42578 6.60938L16.3281 0H19Z" fill="white"/>
<path d="M6.82812 11.3906L7.23633 12.5859L1.55859 18H0V17.8945L6.82812 11.3906ZM11.4297 10.9688L13.4336 11.25L19 16.418V18L11.4297 10.9688ZM19 0L11.875 6.89062L11.7266 5.34375L17.293 0H19ZM0 0.0351562L7.16211 6.67969L4.97266 6.39844L0 1.72266V0.0351562Z" fill="#C8102E"/>
<path d="M6.53125 0V18H12.4688V0H6.53125ZM0 6.1875V11.8125H19V6.1875H0Z" fill="white"/>
<path d="M0 7.3125V10.6875H19V7.3125H0ZM7.71875 0V18H11.2812V0H7.71875Z" fill="#C8102E"/>
</g>
<defs>
<clipPath id="clip0_5003_9425">
<rect width="19" height="18" rx="4" fill="white"/>
</clipPath>
</defs>
</svg>
