<svg width="40" height="40" viewBox="0 0 40 40" fill="none" xmlns="http://www.w3.org/2000/svg">
<rect width="40" height="40" rx="4" fill="#272A2F"/>
<g clip-path="url(#clip0_5044_39105)">
<path d="M20.0002 11.6667C18.4531 11.6667 16.9694 12.2813 15.8754 13.3753C14.7815 14.4693 14.1669 15.953 14.1669 17.5001V20.4401C14.167 20.5694 14.1371 20.6969 14.0794 20.8126L12.6486 23.6734C12.5787 23.8132 12.5457 23.9685 12.5527 24.1246C12.5597 24.2807 12.6065 24.4324 12.6887 24.5654C12.7708 24.6983 12.8856 24.808 13.0221 24.8841C13.1586 24.9602 13.3123 25.0001 13.4686 25.0001H26.5319C26.6882 25.0001 26.8418 24.9602 26.9783 24.8841C27.1148 24.808 27.2296 24.6983 27.3118 24.5654C27.3939 24.4324 27.4407 24.2807 27.4478 24.1246C27.4548 23.9685 27.4218 23.8132 27.3519 23.6734L25.9219 20.8126C25.8639 20.697 25.8337 20.5694 25.8336 20.4401V17.5001C25.8336 15.953 25.219 14.4693 24.125 13.3753C23.0311 12.2813 21.5473 11.6667 20.0002 11.6667ZM20.0002 27.5001C19.483 27.5002 18.9785 27.34 18.5562 27.0415C18.1338 26.7431 17.8144 26.321 17.6419 25.8334H22.3586C22.1861 26.321 21.8666 26.7431 21.4443 27.0415C21.0219 27.34 20.5174 27.5002 20.0002 27.5001Z" fill="white"/>
</g>
<defs>
<clipPath id="clip0_5044_39105">
<rect width="20" height="20" fill="white" transform="translate(10 10)"/>
</clipPath>
</defs>
</svg>
