<svg width="133" height="42" viewBox="0 0 133 42" fill="none" xmlns="http://www.w3.org/2000/svg">
<path d="M4.76378 14.9615H0.672715C0.428512 14.9615 0.230469 15.1576 0.230469 15.3993V40.5724C0.230469 40.8143 0.428512 41.0103 0.672715 41.0103H4.35184C4.89153 41.0103 5.40162 40.7665 5.73721 40.3481L25.5337 15.6716C25.7638 15.3847 25.5574 14.9615 25.1873 14.9615H20.7641C20.2254 14.9615 19.716 15.2045 19.3803 15.6218L5.20602 33.2394V15.3993C5.20602 15.1576 5.00798 14.9615 4.76378 14.9615Z" fill="white"/>
<path fill-rule="evenodd" clip-rule="evenodd" d="M33.6393 40.3501C33.9749 40.7673 34.4844 41.0103 35.0232 41.0103H38.7038C38.948 41.0103 39.146 40.8143 39.146 40.5725V15.3993C39.146 15.1576 38.948 14.9615 38.7038 14.9615H35.0247C34.485 14.9615 33.9749 15.2053 33.6393 15.6237L13.8428 40.3002C13.6127 40.5872 13.819 41.0103 14.1891 41.0103H18.6123C19.1512 41.0103 19.6606 40.7673 19.9961 40.3501L26.8177 31.8714L33.6393 40.3501ZM29.8583 28.2048L34.1705 22.7323L34.3916 33.7867L29.8583 28.2048Z" fill="white"/>
<path fill-rule="evenodd" clip-rule="evenodd" d="M45.5633 14.9615C45.319 14.9615 45.1211 15.1576 45.1211 15.3993V40.5724C45.1211 40.8143 45.319 41.0103 45.5633 41.0103H49.986V15.3993C49.986 15.1576 49.788 14.9615 49.5438 14.9615H45.5633ZM57.1029 36.4135H49.986V41.0103H57.9469H60.7792C61.1512 41.0103 61.357 40.5833 61.1229 40.297L58.478 37.0628C58.142 36.6521 57.6367 36.4135 57.1029 36.4135Z" fill="white"/>
<path d="M113.32 15.6228C112.985 15.205 112.475 14.9615 111.936 14.9615H108.145C107.901 14.9615 107.703 15.1576 107.703 15.3993V40.5724C107.703 40.8143 107.901 41.0103 108.145 41.0103H112.347C112.591 41.0103 112.789 40.8143 112.789 40.5724V22.9512L126.853 40.3531C127.189 40.7685 127.697 41.0103 128.235 41.0103H132.028C132.273 41.0103 132.471 40.8143 132.471 40.5724V15.3993C132.471 15.1576 132.273 14.9615 132.028 14.9615H127.827C127.582 14.9615 127.384 15.1576 127.384 15.3993V33.13L113.32 15.6228Z" fill="#4D88FF"/>
<path d="M55.9531 23.0874L69.2122 40.3481C69.5478 40.7665 70.0579 41.0103 70.5976 41.0103H74.2767C74.5209 41.0103 74.719 40.8143 74.719 40.5724V28.8818L83.9178 40.3481C84.2533 40.7665 84.7634 41.0103 85.3031 41.0103H88.9821C89.2264 41.0103 89.4245 40.8143 89.4245 40.5724V15.3993C89.4245 15.1576 89.2264 14.9615 88.9821 14.9615H84.8912C84.6469 14.9615 84.4489 15.1576 84.4489 15.3993V33.2394L70.1375 15.4513C70.0072 15.2893 69.7434 15.3806 69.7434 15.5877V33.2394L56.3511 15.5597C56.2237 15.3913 55.9531 15.4807 55.9531 15.691V23.0874Z" fill="#4D88FF"/>
<mask id="mask0_5005_65597" style="mask-type:alpha" maskUnits="userSpaceOnUse" x="94" y="0" width="9" height="26">
<path d="M98.5472 0.884617L94.4628 18.9167C94.3218 19.5393 94.2518 19.8505 94.3183 20.1515C94.3859 20.4526 94.5817 20.7054 94.9757 21.211L98.5472 25.8077L102.119 21.211C102.513 20.7054 102.709 20.4526 102.776 20.1515C102.843 19.8505 102.773 19.5393 102.632 18.9167L98.5472 0.884617Z" fill="#E9CC3A"/>
</mask>
<g mask="url(#mask0_5005_65597)">
<path d="M98.5469 25.8077L94.1758 20.1827L98.5469 18.8846V25.8077Z" fill="url(#paint0_linear_5005_65597)"/>
<path d="M98.543 25.8077L102.914 20.1827L98.543 18.8846V25.8077Z" fill="url(#paint1_linear_5005_65597)"/>
<path d="M98.5469 0.884626L94.1758 20.1827L98.5469 18.8846V0.884626Z" fill="url(#paint2_linear_5005_65597)"/>
<path d="M98.543 0.884626L102.914 20.1827L98.543 18.8846V0.884626Z" fill="url(#paint3_linear_5005_65597)"/>
</g>
<path d="M97.0919 41.0385C96.9206 41.0385 96.7737 40.915 96.7469 40.7472L96.1944 37.3427C95.8668 35.3272 96.0463 33.2629 96.7177 31.3328C96.7632 31.2027 96.8868 31.1154 97.0266 31.1154H100.076C100.216 31.1154 100.339 31.2027 100.385 31.3328C101.056 33.2629 101.236 35.3272 100.908 37.3427L100.356 40.7472C100.329 40.915 100.182 41.0385 100.011 41.0385H97.0919Z" fill="url(#paint4_linear_5005_65597)"/>
<mask id="mask1_5005_65597" style="mask-type:alpha" maskUnits="userSpaceOnUse" x="96" y="31" width="6" height="11">
<path d="M97.0928 41.0385C96.9214 41.0385 96.7746 40.9148 96.7478 40.7467L96.1941 37.2937C95.8665 35.258 96.0472 33.1742 96.7186 31.223C96.7641 31.0897 96.89 31 97.0333 31H100.071C100.214 31 100.34 31.0897 100.386 31.223C101.057 33.1742 101.238 35.258 100.91 37.2937L100.357 40.7467C100.33 40.9148 100.183 41.0385 100.012 41.0385H97.0928Z" fill="white"/>
</mask>
<g mask="url(#mask1_5005_65597)">
<path d="M97.5399 40.5769C97.3639 40.5769 97.2147 40.4474 97.1926 40.2745L96.7403 36.7564C96.5177 35.0198 96.6412 33.2566 97.1075 31.5676L97.1611 31.3705C97.2031 31.2198 97.3406 31.1154 97.4991 31.1154H99.6183C99.7768 31.1154 99.9144 31.2198 99.9563 31.3705L100.01 31.5676C100.476 33.2566 100.6 35.0198 100.377 36.7564L99.9248 40.2745C99.9027 40.4474 99.7535 40.5769 99.5775 40.5769H97.5399Z" fill="#467CE9"/>
<path d="M97.9118 32.5C100.165 32.5 101.992 30.6919 101.992 28.4615C101.992 26.2312 100.165 24.4231 97.9118 24.4231C95.6586 24.4231 93.832 26.2312 93.832 28.4615C93.832 30.6919 95.6586 32.5 97.9118 32.5Z" fill="#003264" fill-opacity="0.35"/>
</g>
<path d="M98.5466 31.1731C100.188 31.1731 101.519 29.8558 101.519 28.2308C101.519 26.6058 100.188 25.2885 98.5466 25.2885C96.905 25.2885 95.5742 26.6058 95.5742 28.2308C95.5742 29.8558 96.905 31.1731 98.5466 31.1731Z" stroke="url(#paint5_linear_5005_65597)" stroke-width="1.13609"/>
<mask id="mask2_5005_65597" style="mask-type:alpha" maskUnits="userSpaceOnUse" x="95" y="24" width="8" height="8">
<path d="M98.5466 31.1731C100.188 31.1731 101.519 29.8558 101.519 28.2308C101.519 26.6058 100.188 25.2885 98.5466 25.2885C96.905 25.2885 95.5742 26.6058 95.5742 28.2308C95.5742 29.8558 96.905 31.1731 98.5466 31.1731Z" stroke="url(#paint6_linear_5005_65597)" stroke-width="1.13609"/>
</mask>
<g mask="url(#mask2_5005_65597)">
<path d="M98.7771 31.4039C100.419 31.4039 101.749 30.0865 101.749 28.4615C101.749 26.8366 100.419 25.5192 98.7771 25.5192C97.1355 25.5192 95.8047 26.8366 95.8047 28.4615C95.8047 30.0865 97.1355 31.4039 98.7771 31.4039Z" stroke="url(#paint7_linear_5005_65597)" stroke-width="1.13609"/>
</g>
<defs>
<linearGradient id="paint0_linear_5005_65597" x1="96.3614" y1="18.8846" x2="96.3614" y2="25.8077" gradientUnits="userSpaceOnUse">
<stop stop-color="#749BE9"/>
<stop offset="1" stop-color="#003EB9"/>
</linearGradient>
<linearGradient id="paint1_linear_5005_65597" x1="98.7761" y1="18.8846" x2="98.7761" y2="24.9423" gradientUnits="userSpaceOnUse">
<stop stop-color="#467CE9"/>
<stop offset="1" stop-color="#014080"/>
</linearGradient>
<linearGradient id="paint2_linear_5005_65597" x1="96.3614" y1="0.884626" x2="96.3614" y2="20.1827" gradientUnits="userSpaceOnUse">
<stop stop-color="white"/>
<stop offset="1" stop-color="#F1F4FB"/>
</linearGradient>
<linearGradient id="paint3_linear_5005_65597" x1="100.729" y1="0.884626" x2="100.729" y2="20.1827" gradientUnits="userSpaceOnUse">
<stop stop-color="#E6EEFF"/>
<stop offset="1" stop-color="#A3BAE9"/>
</linearGradient>
<linearGradient id="paint4_linear_5005_65597" x1="95.988" y1="34.7238" x2="101.115" y2="34.7238" gradientUnits="userSpaceOnUse">
<stop offset="0.2" stop-color="white"/>
<stop offset="0.5" stop-color="#77BBFF"/>
<stop offset="0.8" stop-color="#004080"/>
</linearGradient>
<linearGradient id="paint5_linear_5005_65597" x1="97.4392" y1="24.6538" x2="98.5248" y2="31.8687" gradientUnits="userSpaceOnUse">
<stop stop-color="white"/>
<stop offset="0.232541" stop-color="#DDECFB"/>
<stop offset="1" stop-color="#728496"/>
</linearGradient>
<linearGradient id="paint6_linear_5005_65597" x1="97.4392" y1="24.6538" x2="98.5248" y2="31.8687" gradientUnits="userSpaceOnUse">
<stop stop-color="white"/>
<stop offset="0.232541" stop-color="#DDECFB"/>
<stop offset="1" stop-color="#728496"/>
</linearGradient>
<linearGradient id="paint7_linear_5005_65597" x1="97.6697" y1="24.8846" x2="98.7553" y2="32.0994" gradientUnits="userSpaceOnUse">
<stop stop-color="#92ABC5"/>
<stop offset="0.232541" stop-color="#839AB1"/>
<stop offset="1" stop-color="#213F5D"/>
</linearGradient>
</defs>
</svg>
