<svg width="25" height="25" viewBox="0 0 25 25" fill="none" xmlns="http://www.w3.org/2000/svg">
<g clip-path="url(#clip0_354_17885)">
<path fill-rule="evenodd" clip-rule="evenodd" d="M6.33 5.606C6.49591 5.27399 6.75093 4.9947 7.06652 4.79937C7.38212 4.60404 7.74585 4.50038 8.117 4.5H16.881C17.2525 4.50001 17.6166 4.60349 17.9326 4.79884C18.2486 4.99419 18.5039 5.27369 18.67 5.606L22.182 12.631C22.3905 13.047 22.4993 13.5057 22.5 13.971V19.5C22.5 20.0304 22.2893 20.5391 21.9142 20.9142C21.5391 21.2893 21.0304 21.5 20.5 21.5H4.5C3.96957 21.5 3.46086 21.2893 3.08579 20.9142C2.71071 20.5391 2.5 20.0304 2.5 19.5V13.972C2.50019 13.5065 2.60872 13.0473 2.817 12.631L6.33 5.606ZM16.881 6.5H8.118L4.62 13.5H8C8.39782 13.5 8.77936 13.658 9.06066 13.9393C9.34196 14.2206 9.5 14.6022 9.5 15V16C9.5 16.1326 9.55268 16.2598 9.64645 16.3536C9.74021 16.4473 9.86739 16.5 10 16.5H15C15.1326 16.5 15.2598 16.4473 15.3536 16.3536C15.4473 16.2598 15.5 16.1326 15.5 16V15C15.5 14.6022 15.658 14.2206 15.9393 13.9393C16.2206 13.658 16.6022 13.5 17 13.5H20.38L16.881 6.5Z" fill="#A7B1B9"/>
</g>
<defs>
<clipPath id="clip0_354_17885">
<rect width="24" height="24" fill="white" transform="translate(0.5 0.5)"/>
</clipPath>
</defs>
</svg>
