<svg width="20" height="20" viewBox="0 0 20 20" fill="none" xmlns="http://www.w3.org/2000/svg">
<g clip-path="url(#clip0_5003_9439)">
<path fill-rule="evenodd" clip-rule="evenodd" d="M10.0013 1.66663C14.6038 1.66663 18.3346 5.39746 18.3346 9.99996C18.3346 14.6025 14.6038 18.3333 10.0013 18.3333C5.3988 18.3333 1.66797 14.6025 1.66797 9.99996C1.66797 5.39746 5.3988 1.66663 10.0013 1.66663ZM12.3346 11.5475C11.7123 12.1593 10.874 12.5015 10.0013 12.5C9.12856 12.5015 8.29032 12.1593 7.66797 11.5475C7.59022 11.469 7.49766 11.4068 7.39566 11.3645C7.29367 11.3221 7.18427 11.3005 7.07384 11.3008C6.9634 11.3011 6.85413 11.3234 6.75237 11.3663C6.65061 11.4092 6.55839 11.4719 6.48108 11.5507C6.40376 11.6296 6.34289 11.723 6.30201 11.8256C6.26113 11.9282 6.24104 12.0379 6.24292 12.1483C6.24481 12.2587 6.26862 12.3677 6.31297 12.4688C6.35733 12.57 6.42135 12.6613 6.5013 12.7375C7.43517 13.6548 8.69228 14.1681 10.0013 14.1666C11.3103 14.1681 12.5674 13.6548 13.5013 12.7375C13.6554 12.582 13.7422 12.372 13.7428 12.1531C13.7434 11.9341 13.6578 11.7237 13.5045 11.5674C13.3512 11.4111 13.1426 11.3213 12.9237 11.3176C12.7048 11.3138 12.4932 11.3964 12.3346 11.5475ZM7.08464 6.66663C6.75312 6.66663 6.43517 6.79832 6.20075 7.03274C5.96633 7.26716 5.83464 7.58511 5.83464 7.91663C5.83464 8.24815 5.96633 8.56609 6.20075 8.80051C6.43517 9.03493 6.75312 9.16663 7.08464 9.16663C7.41616 9.16663 7.7341 9.03493 7.96852 8.80051C8.20294 8.56609 8.33464 8.24815 8.33464 7.91663C8.33464 7.58511 8.20294 7.26716 7.96852 7.03274C7.7341 6.79832 7.41616 6.66663 7.08464 6.66663ZM12.918 6.66663C12.5864 6.66663 12.2685 6.79832 12.0341 7.03274C11.7997 7.26716 11.668 7.58511 11.668 7.91663C11.668 8.24815 11.7997 8.56609 12.0341 8.80051C12.2685 9.03493 12.5864 9.16663 12.918 9.16663C13.2495 9.16663 13.5674 9.03493 13.8019 8.80051C14.0363 8.56609 14.168 8.24815 14.168 7.91663C14.168 7.58511 14.0363 7.26716 13.8019 7.03274C13.5674 6.79832 13.2495 6.66663 12.918 6.66663Z" fill="#A7B1B9"/>
</g>
<defs>
<clipPath id="clip0_5003_9439">
<rect width="20" height="20" fill="white"/>
</clipPath>
</defs>
</svg>
