<svg width="40" height="32" viewBox="0 0 40 32" fill="none" xmlns="http://www.w3.org/2000/svg">
<g clip-path="url(#clip0_994_84186)">
<path fill-rule="evenodd" clip-rule="evenodd" d="M17.4974 7.66669C17.0554 7.66669 16.6314 7.84228 16.3189 8.15484C16.0063 8.4674 15.8307 8.89133 15.8307 9.33335V11H17.4974V9.33335H26.6641V18.5H24.9974V20.1667H26.6641C27.1061 20.1667 27.53 19.9911 27.8426 19.6785C28.1551 19.366 28.3307 18.942 28.3307 18.5V9.33335C28.3307 8.89133 28.1551 8.4674 27.8426 8.15484C27.53 7.84228 27.1061 7.66669 26.6641 7.66669H17.4974ZM13.3307 11.8334C12.8887 11.8334 12.4648 12.0089 12.1522 12.3215C11.8397 12.6341 11.6641 13.058 11.6641 13.5V22.6667C11.6641 23.1087 11.8397 23.5326 12.1522 23.8452C12.4648 24.1578 12.8887 24.3334 13.3307 24.3334H22.4974C22.9394 24.3334 23.3633 24.1578 23.6759 23.8452C23.9885 23.5326 24.1641 23.1087 24.1641 22.6667V13.5C24.1641 13.058 23.9885 12.6341 23.6759 12.3215C23.3633 12.0089 22.9394 11.8334 22.4974 11.8334H13.3307Z" fill="#A7B1B9"/>
</g>
<defs>
<clipPath id="clip0_994_84186">
<rect width="20" height="20" fill="white" transform="translate(10 6)"/>
</clipPath>
</defs>
</svg>
