<svg width="20" height="21" viewBox="0 0 20 21" fill="none" xmlns="http://www.w3.org/2000/svg">
<g clip-path="url(#clip0_5015_51479)">
<path fill-rule="evenodd" clip-rule="evenodd" d="M16.4789 4.19164C16.6849 4.10496 16.9103 4.07507 17.1317 4.10507C17.3531 4.13507 17.5624 4.22386 17.7378 4.36221C17.9133 4.50056 18.0484 4.6834 18.1292 4.89171C18.21 5.10001 18.2335 5.32617 18.1973 5.54664L16.3072 17.0108C16.1239 18.1166 14.9106 18.7508 13.8964 18.2C13.0481 17.7391 11.7881 17.0291 10.6548 16.2883C10.0881 15.9175 8.35225 14.73 8.56558 13.885C8.74892 13.1625 11.6656 10.4475 13.3323 8.8333C13.9864 8.19914 13.6881 7.8333 12.9156 8.41664C10.9973 9.86497 7.91725 12.0675 6.89892 12.6875C6.00058 13.2341 5.53225 13.3275 4.97225 13.2341C3.95058 13.0641 3.00308 12.8008 2.22975 12.48C1.18475 12.0466 1.23558 10.61 2.22892 10.1916L16.4789 4.19164Z" fill="white"/>
</g>
<defs>
<clipPath id="clip0_5015_51479">
<rect width="20" height="20" fill="white" transform="translate(0 0.5)"/>
</clipPath>
</defs>
</svg>
