<svg width="46" height="46" viewBox="0 0 46 46" fill="none" xmlns="http://www.w3.org/2000/svg">
<rect width="46" height="46" rx="4" fill="#272A2F"/>
<g clip-path="url(#clip0_5044_62704)">
<path fill-rule="evenodd" clip-rule="evenodd" d="M15.0835 23.5C15.0835 23.1685 15.2152 22.8505 15.4496 22.6161C15.684 22.3817 16.002 22.25 16.3335 22.25H29.6668C29.9983 22.25 30.3163 22.3817 30.5507 22.6161C30.7851 22.8505 30.9168 23.1685 30.9168 23.5C30.9168 23.8315 30.7851 24.1495 30.5507 24.3839C30.3163 24.6183 29.9983 24.75 29.6668 24.75H16.3335C16.002 24.75 15.684 24.6183 15.4496 24.3839C15.2152 24.1495 15.0835 23.8315 15.0835 23.5Z" fill="white"/>
</g>
<defs>
<clipPath id="clip0_5044_62704">
<rect width="20" height="20" fill="white" transform="translate(13 13.5)"/>
</clipPath>
</defs>
</svg>
