<svg width="21" height="21" viewBox="0 0 21 21" fill="none" xmlns="http://www.w3.org/2000/svg">
<path fill-rule="evenodd" clip-rule="evenodd" d="M14.007 6.35016C13.0487 5.45016 11.8487 4.9835 10.4987 4.9835C8.11537 4.9835 6.09037 6.59182 5.36536 8.75848V8.7585C5.18203 9.3085 5.0737 9.89184 5.0737 10.5002C5.0737 11.1085 5.18203 11.6918 5.36536 12.2418L5.35448 12.2502H5.36536C6.09036 14.4168 8.11536 16.0252 10.4987 16.0252C11.732 16.0252 12.7737 15.6918 13.5904 15.1418C14.5654 14.4918 15.2154 13.5252 15.432 12.3835H10.4987V8.8335H19.132C19.2404 9.4335 19.2987 10.0585 19.2987 10.7085C19.2987 13.5002 18.2987 15.8502 16.5654 17.4502C15.0487 18.8502 12.9737 19.6668 10.4987 19.6668C6.91536 19.6668 3.82369 17.6085 2.31536 14.6168V14.6085C1.69036 13.3752 1.33203 11.9835 1.33203 10.5002C1.33203 9.01684 1.69036 7.62517 2.31536 6.39184L2.31536 6.39183C3.82369 3.39183 6.91536 1.3335 10.4987 1.3335C12.9737 1.3335 15.0404 2.24183 16.632 3.72516L14.007 6.35016Z" fill="white"/>
</svg>
