<svg width="30" height="31" viewBox="0 0 30 31" fill="none" xmlns="http://www.w3.org/2000/svg">
<rect y="0.5" width="30" height="30" rx="4" fill="#272A2F"/>
<g clip-path="url(#clip0_186_11359)">
<path fill-rule="evenodd" clip-rule="evenodd" d="M14.9985 16.6783L19.7126 21.3925C19.8698 21.5443 20.0803 21.6283 20.2988 21.6264C20.5173 21.6245 20.7263 21.5368 20.8808 21.3823C21.0353 21.2278 21.123 21.0188 21.1249 20.8003C21.1268 20.5818 21.0428 20.3713 20.891 20.2141L16.1768 15.5L20.891 10.7858C21.0428 10.6286 21.1268 10.4181 21.1249 10.1996C21.123 9.98113 21.0353 9.77212 20.8808 9.61761C20.7263 9.46311 20.5173 9.37547 20.2988 9.37357C20.0803 9.37167 19.8698 9.45566 19.7126 9.60746L14.9985 14.3216L10.2843 9.60746C10.1264 9.45942 9.91715 9.3786 9.70074 9.38211C9.48434 9.38563 9.2778 9.4732 9.12481 9.62629C8.97182 9.77938 8.8844 9.98599 8.88104 10.2024C8.87768 10.4188 8.95864 10.628 9.1068 10.7858L13.8201 15.5L9.10597 20.2141C9.02638 20.291 8.96289 20.383 8.91922 20.4846C8.87554 20.5863 8.85256 20.6956 8.85159 20.8063C8.85063 20.9169 8.87172 21.0267 8.91362 21.1291C8.95552 21.2315 9.0174 21.3245 9.09564 21.4028C9.17388 21.481 9.26693 21.5429 9.36934 21.5848C9.47175 21.6267 9.58149 21.6478 9.69214 21.6468C9.80279 21.6459 9.91214 21.6229 10.0138 21.5792C10.1155 21.5355 10.2074 21.4721 10.2843 21.3925L14.9985 16.6783Z" fill="white"/>
</g>
<defs>
<clipPath id="clip0_186_11359">
<rect width="20" height="20" fill="white" transform="translate(5 5.5)"/>
</clipPath>
</defs>
</svg>
