<svg width="20" height="20" viewBox="0 0 20 20" fill="none" xmlns="http://www.w3.org/2000/svg">
<path fill-rule="evenodd" clip-rule="evenodd" d="M13.5109 5.84998C12.5526 4.94998 11.3526 4.48331 10.0026 4.48331C7.61927 4.48331 5.59428 6.09164 4.86927 8.25829V8.25832C4.68594 8.80832 4.5776 9.39165 4.5776 9.99999C4.5776 10.6083 4.68594 11.1917 4.86927 11.7417L4.85839 11.75H4.86926C5.59426 13.9167 7.61926 15.525 10.0026 15.525C11.2359 15.525 12.2776 15.1917 13.0943 14.6416C14.0693 13.9916 14.7193 13.025 14.9359 11.8833H10.0026V8.33331H18.6359C18.7443 8.93331 18.8026 9.55831 18.8026 10.2083C18.8026 13 17.8026 15.35 16.0693 16.95C14.5526 18.35 12.4776 19.1667 10.0026 19.1667C6.41926 19.1667 3.3276 17.1083 1.81926 14.1167V14.1083C1.19427 12.875 0.835938 11.4833 0.835938 9.99999C0.835938 8.51665 1.19427 7.12499 1.81927 5.89165L1.81926 5.89165C3.3276 2.89165 6.41926 0.833313 10.0026 0.833313C12.4776 0.833313 14.5443 1.74165 16.1359 3.22498L13.5109 5.84998Z" fill="white"/>
</svg>
