<svg width="20" height="21" viewBox="0 0 20 21" fill="none" xmlns="http://www.w3.org/2000/svg">
<g clip-path="url(#clip0_5015_35214)">
<path d="M1.72464 5.0685L9.12047 12.4652C9.33926 12.6841 9.63151 12.8141 9.94063 12.8299C10.2497 12.8458 10.5538 12.7464 10.7938 12.551L10.8888 12.4652L18.2796 5.0735C18.3038 5.16516 18.3196 5.2585 18.328 5.35433L18.3346 5.50016V15.5002C18.3348 15.9206 18.176 16.3256 17.8901 16.634C17.6041 16.9423 17.2123 17.1311 16.793 17.1627L16.668 17.1668H3.33464C2.91416 17.167 2.50916 17.0082 2.20085 16.7222C1.89253 16.4363 1.70367 16.0445 1.67214 15.6252L1.66797 15.5002V5.50016C1.66797 5.40016 1.6763 5.3035 1.69297 5.2085L1.72464 5.0685ZM16.668 3.8335C16.7688 3.8335 16.868 3.84183 16.9638 3.85933L17.1055 3.89183L10.0055 10.9918L2.90297 3.89016C2.99464 3.86516 3.08964 3.8485 3.1863 3.84016L3.33464 3.8335H16.668Z" fill="#A7B1B9"/>
</g>
<defs>
<clipPath id="clip0_5015_35214">
<rect width="20" height="20" fill="white" transform="translate(0 0.5)"/>
</clipPath>
</defs>
</svg>
