<svg width="141" height="140" viewBox="0 0 141 140" fill="none" xmlns="http://www.w3.org/2000/svg">
<g clip-path="url(#clip0_994_84670)">
<path d="M140.5 0H0.5V140H140.5V0Z" fill="white"/>
<path d="M13.4741 8.75H9.25V12.9741H13.4741V8.75Z" fill="black"/>
<path d="M17.6983 8.75H13.4741V12.9741H17.6983V8.75Z" fill="black"/>
<path d="M21.9224 8.75H17.6983V12.9741H21.9224V8.75Z" fill="black"/>
<path d="M26.1466 8.75H21.9224V12.9741H26.1466V8.75Z" fill="black"/>
<path d="M30.3707 8.75H26.1466V12.9741H30.3707V8.75Z" fill="black"/>
<path d="M34.5948 8.75H30.3707V12.9741H34.5948V8.75Z" fill="black"/>
<path d="M38.819 8.75H34.5948V12.9741H38.819V8.75Z" fill="black"/>
<path d="M47.2672 8.75H43.0431V12.9741H47.2672V8.75Z" fill="black"/>
<path d="M51.4914 8.75H47.2672V12.9741H51.4914V8.75Z" fill="black"/>
<path d="M64.1638 8.75H59.9397V12.9741H64.1638V8.75Z" fill="black"/>
<path d="M68.3879 8.75H64.1638V12.9741H68.3879V8.75Z" fill="black"/>
<path d="M72.6121 8.75H68.3879V12.9741H72.6121V8.75Z" fill="black"/>
<path d="M85.2845 8.75H81.0603V12.9741H85.2845V8.75Z" fill="black"/>
<path d="M89.5086 8.75H85.2845V12.9741H89.5086V8.75Z" fill="black"/>
<path d="M93.7328 8.75H89.5086V12.9741H93.7328V8.75Z" fill="black"/>
<path d="M97.9569 8.75H93.7328V12.9741H97.9569V8.75Z" fill="black"/>
<path d="M106.405 8.75H102.181V12.9741H106.405V8.75Z" fill="black"/>
<path d="M110.629 8.75H106.405V12.9741H110.629V8.75Z" fill="black"/>
<path d="M114.853 8.75H110.629V12.9741H114.853V8.75Z" fill="black"/>
<path d="M119.078 8.75H114.853V12.9741H119.078V8.75Z" fill="black"/>
<path d="M123.302 8.75H119.078V12.9741H123.302V8.75Z" fill="black"/>
<path d="M127.526 8.75H123.302V12.9741H127.526V8.75Z" fill="black"/>
<path d="M131.75 8.75H127.526V12.9741H131.75V8.75Z" fill="black"/>
<path d="M13.4741 12.9741H9.25V17.1983H13.4741V12.9741Z" fill="black"/>
<path d="M38.819 12.9741H34.5948V17.1983H38.819V12.9741Z" fill="black"/>
<path d="M51.4914 12.9741H47.2672V17.1983H51.4914V12.9741Z" fill="black"/>
<path d="M68.3879 12.9741H64.1638V17.1983H68.3879V12.9741Z" fill="black"/>
<path d="M72.6121 12.9741H68.3879V17.1983H72.6121V12.9741Z" fill="black"/>
<path d="M85.2845 12.9741H81.0603V17.1983H85.2845V12.9741Z" fill="black"/>
<path d="M106.405 12.9741H102.181V17.1983H106.405V12.9741Z" fill="black"/>
<path d="M131.75 12.9741H127.526V17.1983H131.75V12.9741Z" fill="black"/>
<path d="M13.4741 17.1983H9.25V21.4224H13.4741V17.1983Z" fill="black"/>
<path d="M21.9224 17.1983H17.6983V21.4224H21.9224V17.1983Z" fill="black"/>
<path d="M26.1466 17.1983H21.9224V21.4224H26.1466V17.1983Z" fill="black"/>
<path d="M30.3707 17.1983H26.1466V21.4224H30.3707V17.1983Z" fill="black"/>
<path d="M38.819 17.1983H34.5948V21.4224H38.819V17.1983Z" fill="black"/>
<path d="M47.2672 17.1983H43.0431V21.4224H47.2672V17.1983Z" fill="black"/>
<path d="M51.4914 17.1983H47.2672V21.4224H51.4914V17.1983Z" fill="black"/>
<path d="M68.3879 17.1983H64.1638V21.4224H68.3879V17.1983Z" fill="black"/>
<path d="M72.6121 17.1983H68.3879V21.4224H72.6121V17.1983Z" fill="black"/>
<path d="M85.2845 17.1983H81.0603V21.4224H85.2845V17.1983Z" fill="black"/>
<path d="M89.5086 17.1983H85.2845V21.4224H89.5086V17.1983Z" fill="black"/>
<path d="M93.7328 17.1983H89.5086V21.4224H93.7328V17.1983Z" fill="black"/>
<path d="M97.9569 17.1983H93.7328V21.4224H97.9569V17.1983Z" fill="black"/>
<path d="M106.405 17.1983H102.181V21.4224H106.405V17.1983Z" fill="black"/>
<path d="M114.853 17.1983H110.629V21.4224H114.853V17.1983Z" fill="black"/>
<path d="M119.078 17.1983H114.853V21.4224H119.078V17.1983Z" fill="black"/>
<path d="M123.302 17.1983H119.078V21.4224H123.302V17.1983Z" fill="black"/>
<path d="M131.75 17.1983H127.526V21.4224H131.75V17.1983Z" fill="black"/>
<path d="M13.4741 21.4224H9.25V25.6466H13.4741V21.4224Z" fill="black"/>
<path d="M21.9224 21.4224H17.6983V25.6466H21.9224V21.4224Z" fill="black"/>
<path d="M26.1466 21.4224H21.9224V25.6466H26.1466V21.4224Z" fill="black"/>
<path d="M30.3707 21.4224H26.1466V25.6466H30.3707V21.4224Z" fill="black"/>
<path d="M38.819 21.4224H34.5948V25.6466H38.819V21.4224Z" fill="black"/>
<path d="M47.2672 21.4224H43.0431V25.6466H47.2672V21.4224Z" fill="black"/>
<path d="M51.4914 21.4224H47.2672V25.6466H51.4914V21.4224Z" fill="black"/>
<path d="M55.7155 21.4224H51.4914V25.6466H55.7155V21.4224Z" fill="black"/>
<path d="M59.9397 21.4224H55.7155V25.6466H59.9397V21.4224Z" fill="black"/>
<path d="M64.1638 21.4224H59.9397V25.6466H64.1638V21.4224Z" fill="black"/>
<path d="M68.3879 21.4224H64.1638V25.6466H68.3879V21.4224Z" fill="black"/>
<path d="M72.6121 21.4224H68.3879V25.6466H72.6121V21.4224Z" fill="black"/>
<path d="M76.8362 21.4224H72.6121V25.6466H76.8362V21.4224Z" fill="black"/>
<path d="M89.5086 21.4224H85.2845V25.6466H89.5086V21.4224Z" fill="black"/>
<path d="M106.405 21.4224H102.181V25.6466H106.405V21.4224Z" fill="black"/>
<path d="M114.853 21.4224H110.629V25.6466H114.853V21.4224Z" fill="black"/>
<path d="M119.078 21.4224H114.853V25.6466H119.078V21.4224Z" fill="black"/>
<path d="M123.302 21.4224H119.078V25.6466H123.302V21.4224Z" fill="black"/>
<path d="M131.75 21.4224H127.526V25.6466H131.75V21.4224Z" fill="black"/>
<path d="M13.4741 25.6466H9.25V29.8707H13.4741V25.6466Z" fill="black"/>
<path d="M21.9224 25.6466H17.6983V29.8707H21.9224V25.6466Z" fill="black"/>
<path d="M26.1466 25.6466H21.9224V29.8707H26.1466V25.6466Z" fill="black"/>
<path d="M30.3707 25.6466H26.1466V29.8707H30.3707V25.6466Z" fill="black"/>
<path d="M38.819 25.6466H34.5948V29.8707H38.819V25.6466Z" fill="black"/>
<path d="M47.2672 25.6466H43.0431V29.8707H47.2672V25.6466Z" fill="black"/>
<path d="M51.4914 25.6466H47.2672V29.8707H51.4914V25.6466Z" fill="black"/>
<path d="M55.7155 25.6466H51.4914V29.8707H55.7155V25.6466Z" fill="black"/>
<path d="M93.7328 25.6466H89.5086V29.8707H93.7328V25.6466Z" fill="black"/>
<path d="M106.405 25.6466H102.181V29.8707H106.405V25.6466Z" fill="black"/>
<path d="M114.853 25.6466H110.629V29.8707H114.853V25.6466Z" fill="black"/>
<path d="M119.078 25.6466H114.853V29.8707H119.078V25.6466Z" fill="black"/>
<path d="M123.302 25.6466H119.078V29.8707H123.302V25.6466Z" fill="black"/>
<path d="M131.75 25.6466H127.526V29.8707H131.75V25.6466Z" fill="black"/>
<path d="M13.4741 29.8707H9.25V34.0948H13.4741V29.8707Z" fill="black"/>
<path d="M38.819 29.8707H34.5948V34.0948H38.819V29.8707Z" fill="black"/>
<path d="M47.2672 29.8707H43.0431V34.0948H47.2672V29.8707Z" fill="black"/>
<path d="M51.4914 29.8707H47.2672V34.0948H51.4914V29.8707Z" fill="black"/>
<path d="M55.7155 29.8707H51.4914V34.0948H55.7155V29.8707Z" fill="black"/>
<path d="M59.9397 29.8707H55.7155V34.0948H59.9397V29.8707Z" fill="black"/>
<path d="M64.1638 29.8707H59.9397V34.0948H64.1638V29.8707Z" fill="black"/>
<path d="M76.8362 29.8707H72.6121V34.0948H76.8362V29.8707Z" fill="black"/>
<path d="M85.2845 29.8707H81.0603V34.0948H85.2845V29.8707Z" fill="black"/>
<path d="M93.7328 29.8707H89.5086V34.0948H93.7328V29.8707Z" fill="black"/>
<path d="M97.9569 29.8707H93.7328V34.0948H97.9569V29.8707Z" fill="black"/>
<path d="M106.405 29.8707H102.181V34.0948H106.405V29.8707Z" fill="black"/>
<path d="M131.75 29.8707H127.526V34.0948H131.75V29.8707Z" fill="black"/>
<path d="M13.4741 34.0948H9.25V38.319H13.4741V34.0948Z" fill="black"/>
<path d="M17.6983 34.0948H13.4741V38.319H17.6983V34.0948Z" fill="black"/>
<path d="M21.9224 34.0948H17.6983V38.319H21.9224V34.0948Z" fill="black"/>
<path d="M26.1466 34.0948H21.9224V38.319H26.1466V34.0948Z" fill="black"/>
<path d="M30.3707 34.0948H26.1466V38.319H30.3707V34.0948Z" fill="black"/>
<path d="M34.5948 34.0948H30.3707V38.319H34.5948V34.0948Z" fill="black"/>
<path d="M38.819 34.0948H34.5948V38.319H38.819V34.0948Z" fill="black"/>
<path d="M47.2672 34.0948H43.0431V38.319H47.2672V34.0948Z" fill="black"/>
<path d="M55.7155 34.0948H51.4914V38.319H55.7155V34.0948Z" fill="black"/>
<path d="M64.1638 34.0948H59.9397V38.319H64.1638V34.0948Z" fill="black"/>
<path d="M72.6121 34.0948H68.3879V38.319H72.6121V34.0948Z" fill="black"/>
<path d="M81.0603 34.0948H76.8362V38.319H81.0603V34.0948Z" fill="black"/>
<path d="M89.5086 34.0948H85.2845V38.319H89.5086V34.0948Z" fill="black"/>
<path d="M97.9569 34.0948H93.7328V38.319H97.9569V34.0948Z" fill="black"/>
<path d="M106.405 34.0948H102.181V38.319H106.405V34.0948Z" fill="black"/>
<path d="M110.629 34.0948H106.405V38.319H110.629V34.0948Z" fill="black"/>
<path d="M114.853 34.0948H110.629V38.319H114.853V34.0948Z" fill="black"/>
<path d="M119.078 34.0948H114.853V38.319H119.078V34.0948Z" fill="black"/>
<path d="M123.302 34.0948H119.078V38.319H123.302V34.0948Z" fill="black"/>
<path d="M127.526 34.0948H123.302V38.319H127.526V34.0948Z" fill="black"/>
<path d="M131.75 34.0948H127.526V38.319H131.75V34.0948Z" fill="black"/>
<path d="M51.4914 38.319H47.2672V42.5431H51.4914V38.319Z" fill="black"/>
<path d="M59.9397 38.319H55.7155V42.5431H59.9397V38.319Z" fill="black"/>
<path d="M64.1638 38.319H59.9397V42.5431H64.1638V38.319Z" fill="black"/>
<path d="M76.8362 38.319H72.6121V42.5431H76.8362V38.319Z" fill="black"/>
<path d="M85.2845 38.319H81.0603V42.5431H85.2845V38.319Z" fill="black"/>
<path d="M89.5086 38.319H85.2845V42.5431H89.5086V38.319Z" fill="black"/>
<path d="M93.7328 38.319H89.5086V42.5431H93.7328V38.319Z" fill="black"/>
<path d="M21.9224 42.5431H17.6983V46.7672H21.9224V42.5431Z" fill="black"/>
<path d="M26.1466 42.5431H21.9224V46.7672H26.1466V42.5431Z" fill="black"/>
<path d="M30.3707 42.5431H26.1466V46.7672H30.3707V42.5431Z" fill="black"/>
<path d="M34.5948 42.5431H30.3707V46.7672H34.5948V42.5431Z" fill="black"/>
<path d="M38.819 42.5431H34.5948V46.7672H38.819V42.5431Z" fill="black"/>
<path d="M43.0431 42.5431H38.819V46.7672H43.0431V42.5431Z" fill="black"/>
<path d="M85.2845 42.5431H81.0603V46.7672H85.2845V42.5431Z" fill="black"/>
<path d="M89.5086 42.5431H85.2845V46.7672H89.5086V42.5431Z" fill="black"/>
<path d="M102.181 42.5431H97.9569V46.7672H102.181V42.5431Z" fill="black"/>
<path d="M110.629 42.5431H106.405V46.7672H110.629V42.5431Z" fill="black"/>
<path d="M114.853 42.5431H110.629V46.7672H114.853V42.5431Z" fill="black"/>
<path d="M119.078 42.5431H114.853V46.7672H119.078V42.5431Z" fill="black"/>
<path d="M123.302 42.5431H119.078V46.7672H123.302V42.5431Z" fill="black"/>
<path d="M131.75 42.5431H127.526V46.7672H131.75V42.5431Z" fill="black"/>
<path d="M13.4741 46.7672H9.25V50.9914H13.4741V46.7672Z" fill="black"/>
<path d="M34.5948 46.7672H30.3707V50.9914H34.5948V46.7672Z" fill="black"/>
<path d="M43.0431 46.7672H38.819V50.9914H43.0431V46.7672Z" fill="black"/>
<path d="M51.4914 46.7672H47.2672V50.9914H51.4914V46.7672Z" fill="black"/>
<path d="M55.7155 46.7672H51.4914V50.9914H55.7155V46.7672Z" fill="black"/>
<path d="M59.9397 46.7672H55.7155V50.9914H59.9397V46.7672Z" fill="black"/>
<path d="M64.1638 46.7672H59.9397V50.9914H64.1638V46.7672Z" fill="black"/>
<path d="M68.3879 46.7672H64.1638V50.9914H68.3879V46.7672Z" fill="black"/>
<path d="M81.0603 46.7672H76.8362V50.9914H81.0603V46.7672Z" fill="black"/>
<path d="M89.5086 46.7672H85.2845V50.9914H89.5086V46.7672Z" fill="black"/>
<path d="M97.9569 46.7672H93.7328V50.9914H97.9569V46.7672Z" fill="black"/>
<path d="M102.181 46.7672H97.9569V50.9914H102.181V46.7672Z" fill="black"/>
<path d="M106.405 46.7672H102.181V50.9914H106.405V46.7672Z" fill="black"/>
<path d="M110.629 46.7672H106.405V50.9914H110.629V46.7672Z" fill="black"/>
<path d="M119.078 46.7672H114.853V50.9914H119.078V46.7672Z" fill="black"/>
<path d="M127.526 46.7672H123.302V50.9914H127.526V46.7672Z" fill="black"/>
<path d="M131.75 46.7672H127.526V50.9914H131.75V46.7672Z" fill="black"/>
<path d="M13.4741 50.9914H9.25V55.2155H13.4741V50.9914Z" fill="black"/>
<path d="M17.6983 50.9914H13.4741V55.2155H17.6983V50.9914Z" fill="black"/>
<path d="M26.1466 50.9914H21.9224V55.2155H26.1466V50.9914Z" fill="black"/>
<path d="M34.5948 50.9914H30.3707V55.2155H34.5948V50.9914Z" fill="black"/>
<path d="M38.819 50.9914H34.5948V55.2155H38.819V50.9914Z" fill="black"/>
<path d="M47.2672 50.9914H43.0431V55.2155H47.2672V50.9914Z" fill="black"/>
<path d="M59.9397 50.9914H55.7155V55.2155H59.9397V50.9914Z" fill="black"/>
<path d="M72.6121 50.9914H68.3879V55.2155H72.6121V50.9914Z" fill="black"/>
<path d="M76.8362 50.9914H72.6121V55.2155H76.8362V50.9914Z" fill="black"/>
<path d="M81.0603 50.9914H76.8362V55.2155H81.0603V50.9914Z" fill="black"/>
<path d="M93.7328 50.9914H89.5086V55.2155H93.7328V50.9914Z" fill="black"/>
<path d="M102.181 50.9914H97.9569V55.2155H102.181V50.9914Z" fill="black"/>
<path d="M110.629 50.9914H106.405V55.2155H110.629V50.9914Z" fill="black"/>
<path d="M123.302 50.9914H119.078V55.2155H123.302V50.9914Z" fill="black"/>
<path d="M131.75 50.9914H127.526V55.2155H131.75V50.9914Z" fill="black"/>
<path d="M13.4741 55.2155H9.25V59.4397H13.4741V55.2155Z" fill="black"/>
<path d="M17.6983 55.2155H13.4741V59.4397H17.6983V55.2155Z" fill="black"/>
<path d="M21.9224 55.2155H17.6983V59.4397H21.9224V55.2155Z" fill="black"/>
<path d="M26.1466 55.2155H21.9224V59.4397H26.1466V55.2155Z" fill="black"/>
<path d="M34.5948 55.2155H30.3707V59.4397H34.5948V55.2155Z" fill="black"/>
<path d="M47.2672 55.2155H43.0431V59.4397H47.2672V55.2155Z" fill="black"/>
<path d="M59.9397 55.2155H55.7155V59.4397H59.9397V55.2155Z" fill="black"/>
<path d="M68.3879 55.2155H64.1638V59.4397H68.3879V55.2155Z" fill="black"/>
<path d="M72.6121 55.2155H68.3879V59.4397H72.6121V55.2155Z" fill="black"/>
<path d="M76.8362 55.2155H72.6121V59.4397H76.8362V55.2155Z" fill="black"/>
<path d="M85.2845 55.2155H81.0603V59.4397H85.2845V55.2155Z" fill="black"/>
<path d="M106.405 55.2155H102.181V59.4397H106.405V55.2155Z" fill="black"/>
<path d="M114.853 55.2155H110.629V59.4397H114.853V55.2155Z" fill="black"/>
<path d="M119.078 55.2155H114.853V59.4397H119.078V55.2155Z" fill="black"/>
<path d="M123.302 55.2155H119.078V59.4397H123.302V55.2155Z" fill="black"/>
<path d="M13.4741 59.4397H9.25V63.6638H13.4741V59.4397Z" fill="black"/>
<path d="M26.1466 59.4397H21.9224V63.6638H26.1466V59.4397Z" fill="black"/>
<path d="M30.3707 59.4397H26.1466V63.6638H30.3707V59.4397Z" fill="black"/>
<path d="M38.819 59.4397H34.5948V63.6638H38.819V59.4397Z" fill="black"/>
<path d="M68.3879 59.4397H64.1638V63.6638H68.3879V59.4397Z" fill="black"/>
<path d="M72.6121 59.4397H68.3879V63.6638H72.6121V59.4397Z" fill="black"/>
<path d="M89.5086 59.4397H85.2845V63.6638H89.5086V59.4397Z" fill="black"/>
<path d="M97.9569 59.4397H93.7328V63.6638H97.9569V59.4397Z" fill="black"/>
<path d="M106.405 59.4397H102.181V63.6638H106.405V59.4397Z" fill="black"/>
<path d="M119.078 59.4397H114.853V63.6638H119.078V59.4397Z" fill="black"/>
<path d="M131.75 59.4397H127.526V63.6638H131.75V59.4397Z" fill="black"/>
<path d="M30.3707 63.6638H26.1466V67.8879H30.3707V63.6638Z" fill="black"/>
<path d="M34.5948 63.6638H30.3707V67.8879H34.5948V63.6638Z" fill="black"/>
<path d="M43.0431 63.6638H38.819V67.8879H43.0431V63.6638Z" fill="black"/>
<path d="M68.3879 63.6638H64.1638V67.8879H68.3879V63.6638Z" fill="black"/>
<path d="M72.6121 63.6638H68.3879V67.8879H72.6121V63.6638Z" fill="black"/>
<path d="M76.8362 63.6638H72.6121V67.8879H76.8362V63.6638Z" fill="black"/>
<path d="M102.181 63.6638H97.9569V67.8879H102.181V63.6638Z" fill="black"/>
<path d="M106.405 63.6638H102.181V67.8879H106.405V63.6638Z" fill="black"/>
<path d="M110.629 63.6638H106.405V67.8879H110.629V63.6638Z" fill="black"/>
<path d="M119.078 63.6638H114.853V67.8879H119.078V63.6638Z" fill="black"/>
<path d="M127.526 63.6638H123.302V67.8879H127.526V63.6638Z" fill="black"/>
<path d="M21.9224 67.8879H17.6983V72.1121H21.9224V67.8879Z" fill="black"/>
<path d="M30.3707 67.8879H26.1466V72.1121H30.3707V67.8879Z" fill="black"/>
<path d="M34.5948 67.8879H30.3707V72.1121H34.5948V67.8879Z" fill="black"/>
<path d="M38.819 67.8879H34.5948V72.1121H38.819V67.8879Z" fill="black"/>
<path d="M47.2672 67.8879H43.0431V72.1121H47.2672V67.8879Z" fill="black"/>
<path d="M59.9397 67.8879H55.7155V72.1121H59.9397V67.8879Z" fill="black"/>
<path d="M68.3879 67.8879H64.1638V72.1121H68.3879V67.8879Z" fill="black"/>
<path d="M72.6121 67.8879H68.3879V72.1121H72.6121V67.8879Z" fill="black"/>
<path d="M81.0603 67.8879H76.8362V72.1121H81.0603V67.8879Z" fill="black"/>
<path d="M93.7328 67.8879H89.5086V72.1121H93.7328V67.8879Z" fill="black"/>
<path d="M102.181 67.8879H97.9569V72.1121H102.181V67.8879Z" fill="black"/>
<path d="M106.405 67.8879H102.181V72.1121H106.405V67.8879Z" fill="black"/>
<path d="M114.853 67.8879H110.629V72.1121H114.853V67.8879Z" fill="black"/>
<path d="M123.302 67.8879H119.078V72.1121H123.302V67.8879Z" fill="black"/>
<path d="M131.75 67.8879H127.526V72.1121H131.75V67.8879Z" fill="black"/>
<path d="M13.4741 72.1121H9.25V76.3362H13.4741V72.1121Z" fill="black"/>
<path d="M30.3707 72.1121H26.1466V76.3362H30.3707V72.1121Z" fill="black"/>
<path d="M34.5948 72.1121H30.3707V76.3362H34.5948V72.1121Z" fill="black"/>
<path d="M43.0431 72.1121H38.819V76.3362H43.0431V72.1121Z" fill="black"/>
<path d="M47.2672 72.1121H43.0431V76.3362H47.2672V72.1121Z" fill="black"/>
<path d="M51.4914 72.1121H47.2672V76.3362H51.4914V72.1121Z" fill="black"/>
<path d="M68.3879 72.1121H64.1638V76.3362H68.3879V72.1121Z" fill="black"/>
<path d="M72.6121 72.1121H68.3879V76.3362H72.6121V72.1121Z" fill="black"/>
<path d="M76.8362 72.1121H72.6121V76.3362H76.8362V72.1121Z" fill="black"/>
<path d="M81.0603 72.1121H76.8362V76.3362H81.0603V72.1121Z" fill="black"/>
<path d="M89.5086 72.1121H85.2845V76.3362H89.5086V72.1121Z" fill="black"/>
<path d="M97.9569 72.1121H93.7328V76.3362H97.9569V72.1121Z" fill="black"/>
<path d="M106.405 72.1121H102.181V76.3362H106.405V72.1121Z" fill="black"/>
<path d="M114.853 72.1121H110.629V76.3362H114.853V72.1121Z" fill="black"/>
<path d="M123.302 72.1121H119.078V76.3362H123.302V72.1121Z" fill="black"/>
<path d="M13.4741 76.3362H9.25V80.5603H13.4741V76.3362Z" fill="black"/>
<path d="M21.9224 76.3362H17.6983V80.5603H21.9224V76.3362Z" fill="black"/>
<path d="M26.1466 76.3362H21.9224V80.5603H26.1466V76.3362Z" fill="black"/>
<path d="M34.5948 76.3362H30.3707V80.5603H34.5948V76.3362Z" fill="black"/>
<path d="M38.819 76.3362H34.5948V80.5603H38.819V76.3362Z" fill="black"/>
<path d="M51.4914 76.3362H47.2672V80.5603H51.4914V76.3362Z" fill="black"/>
<path d="M59.9397 76.3362H55.7155V80.5603H59.9397V76.3362Z" fill="black"/>
<path d="M76.8362 76.3362H72.6121V80.5603H76.8362V76.3362Z" fill="black"/>
<path d="M85.2845 76.3362H81.0603V80.5603H85.2845V76.3362Z" fill="black"/>
<path d="M93.7328 76.3362H89.5086V80.5603H93.7328V76.3362Z" fill="black"/>
<path d="M102.181 76.3362H97.9569V80.5603H102.181V76.3362Z" fill="black"/>
<path d="M106.405 76.3362H102.181V80.5603H106.405V76.3362Z" fill="black"/>
<path d="M110.629 76.3362H106.405V80.5603H110.629V76.3362Z" fill="black"/>
<path d="M119.078 76.3362H114.853V80.5603H119.078V76.3362Z" fill="black"/>
<path d="M123.302 76.3362H119.078V80.5603H123.302V76.3362Z" fill="black"/>
<path d="M131.75 76.3362H127.526V80.5603H131.75V76.3362Z" fill="black"/>
<path d="M17.6983 80.5603H13.4741V84.7845H17.6983V80.5603Z" fill="black"/>
<path d="M26.1466 80.5603H21.9224V84.7845H26.1466V80.5603Z" fill="black"/>
<path d="M34.5948 80.5603H30.3707V84.7845H34.5948V80.5603Z" fill="black"/>
<path d="M47.2672 80.5603H43.0431V84.7845H47.2672V80.5603Z" fill="black"/>
<path d="M51.4914 80.5603H47.2672V84.7845H51.4914V80.5603Z" fill="black"/>
<path d="M55.7155 80.5603H51.4914V84.7845H55.7155V80.5603Z" fill="black"/>
<path d="M64.1638 80.5603H59.9397V84.7845H64.1638V80.5603Z" fill="black"/>
<path d="M81.0603 80.5603H76.8362V84.7845H81.0603V80.5603Z" fill="black"/>
<path d="M89.5086 80.5603H85.2845V84.7845H89.5086V80.5603Z" fill="black"/>
<path d="M97.9569 80.5603H93.7328V84.7845H97.9569V80.5603Z" fill="black"/>
<path d="M102.181 80.5603H97.9569V84.7845H102.181V80.5603Z" fill="black"/>
<path d="M106.405 80.5603H102.181V84.7845H106.405V80.5603Z" fill="black"/>
<path d="M114.853 80.5603H110.629V84.7845H114.853V80.5603Z" fill="black"/>
<path d="M123.302 80.5603H119.078V84.7845H123.302V80.5603Z" fill="black"/>
<path d="M131.75 80.5603H127.526V84.7845H131.75V80.5603Z" fill="black"/>
<path d="M17.6983 84.7845H13.4741V89.0086H17.6983V84.7845Z" fill="black"/>
<path d="M30.3707 84.7845H26.1466V89.0086H30.3707V84.7845Z" fill="black"/>
<path d="M38.819 84.7845H34.5948V89.0086H38.819V84.7845Z" fill="black"/>
<path d="M47.2672 84.7845H43.0431V89.0086H47.2672V84.7845Z" fill="black"/>
<path d="M55.7155 84.7845H51.4914V89.0086H55.7155V84.7845Z" fill="black"/>
<path d="M68.3879 84.7845H64.1638V89.0086H68.3879V84.7845Z" fill="black"/>
<path d="M76.8362 84.7845H72.6121V89.0086H76.8362V84.7845Z" fill="black"/>
<path d="M89.5086 84.7845H85.2845V89.0086H89.5086V84.7845Z" fill="black"/>
<path d="M102.181 84.7845H97.9569V89.0086H102.181V84.7845Z" fill="black"/>
<path d="M106.405 84.7845H102.181V89.0086H106.405V84.7845Z" fill="black"/>
<path d="M119.078 84.7845H114.853V89.0086H119.078V84.7845Z" fill="black"/>
<path d="M131.75 84.7845H127.526V89.0086H131.75V84.7845Z" fill="black"/>
<path d="M13.4741 89.0086H9.25V93.2328H13.4741V89.0086Z" fill="black"/>
<path d="M21.9224 89.0086H17.6983V93.2328H21.9224V89.0086Z" fill="black"/>
<path d="M26.1466 89.0086H21.9224V93.2328H26.1466V89.0086Z" fill="black"/>
<path d="M30.3707 89.0086H26.1466V93.2328H30.3707V89.0086Z" fill="black"/>
<path d="M51.4914 89.0086H47.2672V93.2328H51.4914V89.0086Z" fill="black"/>
<path d="M59.9397 89.0086H55.7155V93.2328H59.9397V89.0086Z" fill="black"/>
<path d="M68.3879 89.0086H64.1638V93.2328H68.3879V89.0086Z" fill="black"/>
<path d="M81.0603 89.0086H76.8362V93.2328H81.0603V89.0086Z" fill="black"/>
<path d="M85.2845 89.0086H81.0603V93.2328H85.2845V89.0086Z" fill="black"/>
<path d="M106.405 89.0086H102.181V93.2328H106.405V89.0086Z" fill="black"/>
<path d="M110.629 89.0086H106.405V93.2328H110.629V89.0086Z" fill="black"/>
<path d="M119.078 89.0086H114.853V93.2328H119.078V89.0086Z" fill="black"/>
<path d="M123.302 89.0086H119.078V93.2328H123.302V89.0086Z" fill="black"/>
<path d="M131.75 89.0086H127.526V93.2328H131.75V89.0086Z" fill="black"/>
<path d="M13.4741 93.2328H9.25V97.4569H13.4741V93.2328Z" fill="black"/>
<path d="M17.6983 93.2328H13.4741V97.4569H17.6983V93.2328Z" fill="black"/>
<path d="M30.3707 93.2328H26.1466V97.4569H30.3707V93.2328Z" fill="black"/>
<path d="M38.819 93.2328H34.5948V97.4569H38.819V93.2328Z" fill="black"/>
<path d="M43.0431 93.2328H38.819V97.4569H43.0431V93.2328Z" fill="black"/>
<path d="M51.4914 93.2328H47.2672V97.4569H51.4914V93.2328Z" fill="black"/>
<path d="M55.7155 93.2328H51.4914V97.4569H55.7155V93.2328Z" fill="black"/>
<path d="M59.9397 93.2328H55.7155V97.4569H59.9397V93.2328Z" fill="black"/>
<path d="M68.3879 93.2328H64.1638V97.4569H68.3879V93.2328Z" fill="black"/>
<path d="M76.8362 93.2328H72.6121V97.4569H76.8362V93.2328Z" fill="black"/>
<path d="M85.2845 93.2328H81.0603V97.4569H85.2845V93.2328Z" fill="black"/>
<path d="M93.7328 93.2328H89.5086V97.4569H93.7328V93.2328Z" fill="black"/>
<path d="M97.9569 93.2328H93.7328V97.4569H97.9569V93.2328Z" fill="black"/>
<path d="M102.181 93.2328H97.9569V97.4569H102.181V93.2328Z" fill="black"/>
<path d="M106.405 93.2328H102.181V97.4569H106.405V93.2328Z" fill="black"/>
<path d="M110.629 93.2328H106.405V97.4569H110.629V93.2328Z" fill="black"/>
<path d="M114.853 93.2328H110.629V97.4569H114.853V93.2328Z" fill="black"/>
<path d="M119.078 93.2328H114.853V97.4569H119.078V93.2328Z" fill="black"/>
<path d="M55.7155 97.4569H51.4914V101.681H55.7155V97.4569Z" fill="black"/>
<path d="M68.3879 97.4569H64.1638V101.681H68.3879V97.4569Z" fill="black"/>
<path d="M85.2845 97.4569H81.0603V101.681H85.2845V97.4569Z" fill="black"/>
<path d="M97.9569 97.4569H93.7328V101.681H97.9569V97.4569Z" fill="black"/>
<path d="M114.853 97.4569H110.629V101.681H114.853V97.4569Z" fill="black"/>
<path d="M123.302 97.4569H119.078V101.681H123.302V97.4569Z" fill="black"/>
<path d="M131.75 97.4569H127.526V101.681H131.75V97.4569Z" fill="black"/>
<path d="M13.4741 101.681H9.25V105.905H13.4741V101.681Z" fill="black"/>
<path d="M17.6983 101.681H13.4741V105.905H17.6983V101.681Z" fill="black"/>
<path d="M21.9224 101.681H17.6983V105.905H21.9224V101.681Z" fill="black"/>
<path d="M26.1466 101.681H21.9224V105.905H26.1466V101.681Z" fill="black"/>
<path d="M30.3707 101.681H26.1466V105.905H30.3707V101.681Z" fill="black"/>
<path d="M34.5948 101.681H30.3707V105.905H34.5948V101.681Z" fill="black"/>
<path d="M38.819 101.681H34.5948V105.905H38.819V101.681Z" fill="black"/>
<path d="M47.2672 101.681H43.0431V105.905H47.2672V101.681Z" fill="black"/>
<path d="M51.4914 101.681H47.2672V105.905H51.4914V101.681Z" fill="black"/>
<path d="M59.9397 101.681H55.7155V105.905H59.9397V101.681Z" fill="black"/>
<path d="M68.3879 101.681H64.1638V105.905H68.3879V101.681Z" fill="black"/>
<path d="M76.8362 101.681H72.6121V105.905H76.8362V101.681Z" fill="black"/>
<path d="M85.2845 101.681H81.0603V105.905H85.2845V101.681Z" fill="black"/>
<path d="M89.5086 101.681H85.2845V105.905H89.5086V101.681Z" fill="black"/>
<path d="M97.9569 101.681H93.7328V105.905H97.9569V101.681Z" fill="black"/>
<path d="M106.405 101.681H102.181V105.905H106.405V101.681Z" fill="black"/>
<path d="M114.853 101.681H110.629V105.905H114.853V101.681Z" fill="black"/>
<path d="M13.4741 105.905H9.25V110.129H13.4741V105.905Z" fill="black"/>
<path d="M38.819 105.905H34.5948V110.129H38.819V105.905Z" fill="black"/>
<path d="M47.2672 105.905H43.0431V110.129H47.2672V105.905Z" fill="black"/>
<path d="M51.4914 105.905H47.2672V110.129H51.4914V105.905Z" fill="black"/>
<path d="M59.9397 105.905H55.7155V110.129H59.9397V105.905Z" fill="black"/>
<path d="M68.3879 105.905H64.1638V110.129H68.3879V105.905Z" fill="black"/>
<path d="M76.8362 105.905H72.6121V110.129H76.8362V105.905Z" fill="black"/>
<path d="M85.2845 105.905H81.0603V110.129H85.2845V105.905Z" fill="black"/>
<path d="M89.5086 105.905H85.2845V110.129H89.5086V105.905Z" fill="black"/>
<path d="M93.7328 105.905H89.5086V110.129H93.7328V105.905Z" fill="black"/>
<path d="M97.9569 105.905H93.7328V110.129H97.9569V105.905Z" fill="black"/>
<path d="M114.853 105.905H110.629V110.129H114.853V105.905Z" fill="black"/>
<path d="M123.302 105.905H119.078V110.129H123.302V105.905Z" fill="black"/>
<path d="M127.526 105.905H123.302V110.129H127.526V105.905Z" fill="black"/>
<path d="M131.75 105.905H127.526V110.129H131.75V105.905Z" fill="black"/>
<path d="M13.4741 110.129H9.25V114.353H13.4741V110.129Z" fill="black"/>
<path d="M21.9224 110.129H17.6983V114.353H21.9224V110.129Z" fill="black"/>
<path d="M26.1466 110.129H21.9224V114.353H26.1466V110.129Z" fill="black"/>
<path d="M30.3707 110.129H26.1466V114.353H30.3707V110.129Z" fill="black"/>
<path d="M38.819 110.129H34.5948V114.353H38.819V110.129Z" fill="black"/>
<path d="M47.2672 110.129H43.0431V114.353H47.2672V110.129Z" fill="black"/>
<path d="M51.4914 110.129H47.2672V114.353H51.4914V110.129Z" fill="black"/>
<path d="M55.7155 110.129H51.4914V114.353H55.7155V110.129Z" fill="black"/>
<path d="M59.9397 110.129H55.7155V114.353H59.9397V110.129Z" fill="black"/>
<path d="M68.3879 110.129H64.1638V114.353H68.3879V110.129Z" fill="black"/>
<path d="M72.6121 110.129H68.3879V114.353H72.6121V110.129Z" fill="black"/>
<path d="M81.0603 110.129H76.8362V114.353H81.0603V110.129Z" fill="black"/>
<path d="M85.2845 110.129H81.0603V114.353H85.2845V110.129Z" fill="black"/>
<path d="M93.7328 110.129H89.5086V114.353H93.7328V110.129Z" fill="black"/>
<path d="M97.9569 110.129H93.7328V114.353H97.9569V110.129Z" fill="black"/>
<path d="M102.181 110.129H97.9569V114.353H102.181V110.129Z" fill="black"/>
<path d="M106.405 110.129H102.181V114.353H106.405V110.129Z" fill="black"/>
<path d="M110.629 110.129H106.405V114.353H110.629V110.129Z" fill="black"/>
<path d="M114.853 110.129H110.629V114.353H114.853V110.129Z" fill="black"/>
<path d="M119.078 110.129H114.853V114.353H119.078V110.129Z" fill="black"/>
<path d="M123.302 110.129H119.078V114.353H123.302V110.129Z" fill="black"/>
<path d="M127.526 110.129H123.302V114.353H127.526V110.129Z" fill="black"/>
<path d="M13.4741 114.353H9.25V118.578H13.4741V114.353Z" fill="black"/>
<path d="M21.9224 114.353H17.6983V118.578H21.9224V114.353Z" fill="black"/>
<path d="M26.1466 114.353H21.9224V118.578H26.1466V114.353Z" fill="black"/>
<path d="M30.3707 114.353H26.1466V118.578H30.3707V114.353Z" fill="black"/>
<path d="M38.819 114.353H34.5948V118.578H38.819V114.353Z" fill="black"/>
<path d="M47.2672 114.353H43.0431V118.578H47.2672V114.353Z" fill="black"/>
<path d="M51.4914 114.353H47.2672V118.578H51.4914V114.353Z" fill="black"/>
<path d="M59.9397 114.353H55.7155V118.578H59.9397V114.353Z" fill="black"/>
<path d="M68.3879 114.353H64.1638V118.578H68.3879V114.353Z" fill="black"/>
<path d="M76.8362 114.353H72.6121V118.578H76.8362V114.353Z" fill="black"/>
<path d="M81.0603 114.353H76.8362V118.578H81.0603V114.353Z" fill="black"/>
<path d="M89.5086 114.353H85.2845V118.578H89.5086V114.353Z" fill="black"/>
<path d="M93.7328 114.353H89.5086V118.578H93.7328V114.353Z" fill="black"/>
<path d="M102.181 114.353H97.9569V118.578H102.181V114.353Z" fill="black"/>
<path d="M110.629 114.353H106.405V118.578H110.629V114.353Z" fill="black"/>
<path d="M119.078 114.353H114.853V118.578H119.078V114.353Z" fill="black"/>
<path d="M127.526 114.353H123.302V118.578H127.526V114.353Z" fill="black"/>
<path d="M13.4741 118.578H9.25V122.802H13.4741V118.578Z" fill="black"/>
<path d="M21.9224 118.578H17.6983V122.802H21.9224V118.578Z" fill="black"/>
<path d="M26.1466 118.578H21.9224V122.802H26.1466V118.578Z" fill="black"/>
<path d="M30.3707 118.578H26.1466V122.802H30.3707V118.578Z" fill="black"/>
<path d="M38.819 118.578H34.5948V122.802H38.819V118.578Z" fill="black"/>
<path d="M47.2672 118.578H43.0431V122.802H47.2672V118.578Z" fill="black"/>
<path d="M55.7155 118.578H51.4914V122.802H55.7155V118.578Z" fill="black"/>
<path d="M64.1638 118.578H59.9397V122.802H64.1638V118.578Z" fill="black"/>
<path d="M81.0603 118.578H76.8362V122.802H81.0603V118.578Z" fill="black"/>
<path d="M89.5086 118.578H85.2845V122.802H89.5086V118.578Z" fill="black"/>
<path d="M97.9569 118.578H93.7328V122.802H97.9569V118.578Z" fill="black"/>
<path d="M106.405 118.578H102.181V122.802H106.405V118.578Z" fill="black"/>
<path d="M114.853 118.578H110.629V122.802H114.853V118.578Z" fill="black"/>
<path d="M13.4741 122.802H9.25V127.026H13.4741V122.802Z" fill="black"/>
<path d="M38.819 122.802H34.5948V127.026H38.819V122.802Z" fill="black"/>
<path d="M51.4914 122.802H47.2672V127.026H51.4914V122.802Z" fill="black"/>
<path d="M64.1638 122.802H59.9397V127.026H64.1638V122.802Z" fill="black"/>
<path d="M68.3879 122.802H64.1638V127.026H68.3879V122.802Z" fill="black"/>
<path d="M81.0603 122.802H76.8362V127.026H81.0603V122.802Z" fill="black"/>
<path d="M93.7328 122.802H89.5086V127.026H93.7328V122.802Z" fill="black"/>
<path d="M102.181 122.802H97.9569V127.026H102.181V122.802Z" fill="black"/>
<path d="M114.853 122.802H110.629V127.026H114.853V122.802Z" fill="black"/>
<path d="M119.078 122.802H114.853V127.026H119.078V122.802Z" fill="black"/>
<path d="M123.302 122.802H119.078V127.026H123.302V122.802Z" fill="black"/>
<path d="M127.526 122.802H123.302V127.026H127.526V122.802Z" fill="black"/>
<path d="M13.4741 127.026H9.25V131.25H13.4741V127.026Z" fill="black"/>
<path d="M17.6983 127.026H13.4741V131.25H17.6983V127.026Z" fill="black"/>
<path d="M21.9224 127.026H17.6983V131.25H21.9224V127.026Z" fill="black"/>
<path d="M26.1466 127.026H21.9224V131.25H26.1466V127.026Z" fill="black"/>
<path d="M30.3707 127.026H26.1466V131.25H30.3707V127.026Z" fill="black"/>
<path d="M34.5948 127.026H30.3707V131.25H34.5948V127.026Z" fill="black"/>
<path d="M38.819 127.026H34.5948V131.25H38.819V127.026Z" fill="black"/>
<path d="M51.4914 127.026H47.2672V131.25H51.4914V127.026Z" fill="black"/>
<path d="M68.3879 127.026H64.1638V131.25H68.3879V127.026Z" fill="black"/>
<path d="M76.8362 127.026H72.6121V131.25H76.8362V127.026Z" fill="black"/>
<path d="M85.2845 127.026H81.0603V131.25H85.2845V127.026Z" fill="black"/>
<path d="M102.181 127.026H97.9569V131.25H102.181V127.026Z" fill="black"/>
<path d="M119.078 127.026H114.853V131.25H119.078V127.026Z" fill="black"/>
</g>
<defs>
<clipPath id="clip0_994_84670">
<rect x="0.5" width="140" height="140" rx="8" fill="white"/>
</clipPath>
</defs>
</svg>
