<svg width="30" height="31" viewBox="0 0 30 31" fill="none" xmlns="http://www.w3.org/2000/svg">
<rect y="0.5" width="30" height="30" rx="4" fill="#272A2F"/>
<g clip-path="url(#clip0_206_4108)">
<path fill-rule="evenodd" clip-rule="evenodd" d="M11.912 16.0893C11.7557 15.933 11.668 15.7211 11.668 15.5001C11.668 15.2792 11.7557 15.0672 11.912 14.911L16.6261 10.1968C16.703 10.1172 16.795 10.0537 16.8966 10.01C16.9983 9.96636 17.1076 9.94338 17.2183 9.94241C17.3289 9.94145 17.4387 9.96254 17.5411 10.0044C17.6435 10.0463 17.7365 10.1082 17.8148 10.1865C17.893 10.2647 17.9549 10.3577 17.9968 10.4602C18.0387 10.5626 18.0598 10.6723 18.0588 10.783C18.0579 10.8936 18.0349 11.003 17.9912 11.1046C17.9475 11.2063 17.884 11.2983 17.8045 11.3751L13.6795 15.5001L17.8045 19.6251C17.9563 19.7823 18.0403 19.9928 18.0384 20.2113C18.0365 20.4298 17.9488 20.6388 17.7943 20.7933C17.6398 20.9478 17.4308 21.0355 17.2123 21.0374C16.9938 21.0393 16.7833 20.9553 16.6261 20.8035L11.912 16.0893Z" fill="white"/>
</g>
<defs>
<clipPath id="clip0_206_4108">
<rect width="20" height="20" fill="white" transform="translate(5 5.5)"/>
</clipPath>
</defs>
</svg>
