<svg width="46" height="46" viewBox="0 0 46 46" fill="none" xmlns="http://www.w3.org/2000/svg">
<rect width="46" height="46" rx="4" fill="#272A2F"/>
<g clip-path="url(#clip0_5044_49845)">
<path d="M21.7502 30.1667C21.7502 30.4982 21.8819 30.8162 22.1163 31.0506C22.3507 31.285 22.6686 31.4167 23.0002 31.4167C23.3317 31.4167 23.6496 31.285 23.884 31.0506C24.1185 30.8162 24.2502 30.4982 24.2502 30.1667V24.75H29.6668C29.9983 24.75 30.3163 24.6183 30.5507 24.3839C30.7851 24.1495 30.9168 23.8316 30.9168 23.5C30.9168 23.1685 30.7851 22.8506 30.5507 22.6162C30.3163 22.3817 29.9983 22.25 29.6668 22.25H24.2502V16.8334C24.2502 16.5019 24.1185 16.1839 23.884 15.9495C23.6496 15.7151 23.3317 15.5834 23.0002 15.5834C22.6686 15.5834 22.3507 15.7151 22.1163 15.9495C21.8819 16.1839 21.7502 16.5019 21.7502 16.8334V22.25H16.3335C16.002 22.25 15.684 22.3817 15.4496 22.6162C15.2152 22.8506 15.0835 23.1685 15.0835 23.5C15.0835 23.8316 15.2152 24.1495 15.4496 24.3839C15.684 24.6183 16.002 24.75 16.3335 24.75H21.7502V30.1667Z" fill="white"/>
</g>
<defs>
<clipPath id="clip0_5044_49845">
<rect width="20" height="20" fill="white" transform="translate(13 13.5)"/>
</clipPath>
</defs>
</svg>
