<svg width="21" height="21" viewBox="0 0 21 21" fill="none" xmlns="http://www.w3.org/2000/svg">
<g clip-path="url(#clip0_5015_60553)">
<path fill-rule="evenodd" clip-rule="evenodd" d="M13.0023 3.8335C13.6223 3.8335 14.2773 4.05016 14.8773 4.28933L15.3165 4.46933C16.3665 4.90933 16.9565 5.83266 17.414 6.84683C18.1565 8.49266 18.6723 10.6868 18.8507 12.3552C18.9357 13.1468 18.9565 13.9435 18.804 14.4793C18.6398 15.0518 18.0815 15.4568 17.539 15.7752L17.2707 15.9277L16.9923 16.0827C16.849 16.1627 16.7015 16.2418 16.5548 16.3193L16.1198 16.5443L15.5223 16.8418L15.0415 17.0785C14.9433 17.1315 14.8354 17.1642 14.7243 17.1747C14.6132 17.1851 14.5011 17.1732 14.3947 17.1396C14.2883 17.1059 14.1897 17.0512 14.1049 16.9788C14.02 16.9063 13.9505 16.8175 13.9006 16.7177C13.8507 16.6179 13.8214 16.509 13.8143 16.3977C13.8073 16.2863 13.8227 16.1746 13.8596 16.0693C13.8965 15.964 13.9542 15.8672 14.0293 15.7846C14.1043 15.702 14.1952 15.6353 14.2965 15.5885L14.9548 15.2635L14.4715 14.756C13.3132 15.231 11.949 15.5002 10.4998 15.5002C9.05068 15.5002 7.68652 15.2318 6.52818 14.756L6.04485 15.2627L6.70568 15.5877C6.80363 15.6366 6.89098 15.7043 6.96275 15.787C7.03451 15.8697 7.0893 15.9657 7.12396 16.0695C7.15863 16.1734 7.1725 16.283 7.16479 16.3922C7.15708 16.5014 7.12793 16.6081 7.07902 16.706C7.0301 16.8039 6.96237 16.8913 6.87969 16.9631C6.79702 17.0348 6.70102 17.0896 6.59717 17.1243C6.38744 17.1943 6.15849 17.1781 5.96068 17.0793L5.50735 16.8543C5.17235 16.6877 4.83652 16.5227 4.50485 16.3485L3.73152 15.9277L3.46402 15.7752C2.92152 15.4568 2.36235 15.0518 2.19902 14.4793C2.04568 13.9435 2.06735 13.1477 2.15152 12.3543C2.32985 10.6868 2.84568 8.49266 3.58818 6.84683C4.04568 5.83266 4.63568 4.90933 5.68568 4.46933C6.38235 4.17766 7.22652 3.8335 7.99985 3.8335C8.50235 3.8335 8.89735 4.296 8.82485 4.78933C9.3794 4.70728 9.93926 4.66633 10.4998 4.66683C11.0757 4.66683 11.6382 4.7085 12.1782 4.79016C12.1621 4.67182 12.1714 4.55142 12.2053 4.43692C12.2393 4.32242 12.2972 4.21645 12.3752 4.12601C12.4532 4.03556 12.5495 3.96272 12.6578 3.91229C12.766 3.86187 12.8829 3.83501 13.0023 3.8335ZM7.79152 9.25016C7.40474 9.25016 7.03381 9.40381 6.76032 9.6773C6.48683 9.95079 6.33318 10.3217 6.33318 10.7085C6.33318 11.0953 6.48683 11.4662 6.76032 11.7397C7.03381 12.0132 7.40474 12.1668 7.79152 12.1668C8.17829 12.1668 8.54922 12.0132 8.82271 11.7397C9.0962 11.4662 9.24985 11.0953 9.24985 10.7085C9.24985 10.3217 9.0962 9.95079 8.82271 9.6773C8.54922 9.40381 8.17829 9.25016 7.79152 9.25016ZM13.2082 9.25016C12.8214 9.25016 12.4505 9.40381 12.177 9.6773C11.9035 9.95079 11.7498 10.3217 11.7498 10.7085C11.7498 11.0953 11.9035 11.4662 12.177 11.7397C12.4505 12.0132 12.8214 12.1668 13.2082 12.1668C13.595 12.1668 13.9659 12.0132 14.2394 11.7397C14.5129 11.4662 14.6665 11.0953 14.6665 10.7085C14.6665 10.3217 14.5129 9.95079 14.2394 9.6773C13.9659 9.40381 13.595 9.25016 13.2082 9.25016Z" fill="white"/>
</g>
<defs>
<clipPath id="clip0_5015_60553">
<rect width="20" height="20" fill="white" transform="translate(0.5 0.5)"/>
</clipPath>
</defs>
</svg>
