<svg width="40" height="40" viewBox="0 0 40 40" fill="none" xmlns="http://www.w3.org/2000/svg">
<rect width="40" height="40" rx="4" fill="#272A2F"/>
<g clip-path="url(#clip0_994_84032)">
<path fill-rule="evenodd" clip-rule="evenodd" d="M17.4974 11.6667C17.0554 11.6667 16.6314 11.8423 16.3189 12.1548C16.0063 12.4674 15.8307 12.8913 15.8307 13.3334V15H17.4974V13.3334H26.6641V22.5H24.9974V24.1667H26.6641C27.1061 24.1667 27.53 23.9911 27.8426 23.6785C28.1551 23.366 28.3307 22.942 28.3307 22.5V13.3334C28.3307 12.8913 28.1551 12.4674 27.8426 12.1548C27.53 11.8423 27.1061 11.6667 26.6641 11.6667H17.4974ZM13.3307 15.8334C12.8887 15.8334 12.4648 16.0089 12.1522 16.3215C11.8397 16.6341 11.6641 17.058 11.6641 17.5V26.6667C11.6641 27.1087 11.8397 27.5326 12.1522 27.8452C12.4648 28.1578 12.8887 28.3334 13.3307 28.3334H22.4974C22.9394 28.3334 23.3633 28.1578 23.6759 27.8452C23.9885 27.5326 24.1641 27.1087 24.1641 26.6667V17.5C24.1641 17.058 23.9885 16.6341 23.6759 16.3215C23.3633 16.0089 22.9394 15.8334 22.4974 15.8334H13.3307Z" fill="white"/>
</g>
<defs>
<clipPath id="clip0_994_84032">
<rect width="20" height="20" fill="white" transform="translate(10 10)"/>
</clipPath>
</defs>
</svg>
