<svg width="20" height="20" viewBox="0 0 20 20" fill="none" xmlns="http://www.w3.org/2000/svg">
<g clip-path="url(#clip0_994_83951)">
<path fill-rule="evenodd" clip-rule="evenodd" d="M12.5023 3.33331C13.1223 3.33331 13.7773 3.54998 14.3773 3.78915L14.8165 3.96915C15.8665 4.40915 16.4565 5.33248 16.914 6.34665C17.6565 7.99248 18.1723 10.1866 18.3507 11.855C18.4357 12.6466 18.4565 13.4433 18.304 13.9791C18.1398 14.5516 17.5815 14.9566 17.039 15.275L16.7707 15.4275L16.4923 15.5825C16.349 15.6625 16.2015 15.7416 16.0548 15.8191L15.6198 16.0441L15.0223 16.3416L14.5415 16.5783C14.4433 16.6313 14.3354 16.664 14.2243 16.6745C14.1132 16.685 14.0011 16.673 13.8947 16.6394C13.7883 16.6057 13.6897 16.551 13.6049 16.4786C13.52 16.4061 13.4505 16.3173 13.4006 16.2175C13.3507 16.1177 13.3214 16.0089 13.3143 15.8975C13.3073 15.7861 13.3227 15.6744 13.3596 15.5691C13.3965 15.4638 13.4542 15.367 13.5293 15.2844C13.6043 15.2018 13.6952 15.1351 13.7965 15.0883L14.4548 14.7633L13.9715 14.2558C12.8132 14.7308 11.449 15 9.99985 15C8.55068 15 7.18652 14.7316 6.02818 14.2558L5.54485 14.7625L6.20568 15.0875C6.30363 15.1364 6.39098 15.2041 6.46275 15.2868C6.53451 15.3695 6.5893 15.4655 6.62396 15.5693C6.65863 15.6732 6.6725 15.7828 6.66479 15.892C6.65708 16.0012 6.62793 16.1079 6.57902 16.2058C6.5301 16.3038 6.46237 16.3911 6.37969 16.4629C6.29702 16.5346 6.20102 16.5894 6.09717 16.6241C5.88744 16.6941 5.65849 16.6779 5.46068 16.5791L5.00735 16.3541C4.67235 16.1875 4.33652 16.0225 4.00485 15.8483L3.23152 15.4275L2.96402 15.275C2.42152 14.9566 1.86235 14.5516 1.69902 13.9791C1.54568 13.4433 1.56735 12.6475 1.65152 11.8541C1.82985 10.1866 2.34568 7.99248 3.08818 6.34665C3.54568 5.33248 4.13568 4.40915 5.18568 3.96915C5.88235 3.67748 6.72652 3.33331 7.49985 3.33331C8.00235 3.33331 8.39735 3.79581 8.32485 4.28915C8.8794 4.20709 9.43926 4.16615 9.99985 4.16665C10.5757 4.16665 11.1382 4.20831 11.6782 4.28998C11.6621 4.17164 11.6714 4.05123 11.7053 3.93674C11.7393 3.82224 11.7972 3.71626 11.8752 3.62582C11.9532 3.53538 12.0495 3.46254 12.1578 3.41211C12.266 3.36168 12.3829 3.33482 12.5023 3.33331ZM7.29152 8.74998C6.90474 8.74998 6.53381 8.90363 6.26032 9.17712C5.98683 9.45061 5.83318 9.82154 5.83318 10.2083C5.83318 10.5951 5.98683 10.966 6.26032 11.2395C6.53381 11.513 6.90474 11.6666 7.29152 11.6666C7.67829 11.6666 8.04922 11.513 8.32271 11.2395C8.5962 10.966 8.74985 10.5951 8.74985 10.2083C8.74985 9.82154 8.5962 9.45061 8.32271 9.17712C8.04922 8.90363 7.67829 8.74998 7.29152 8.74998ZM12.7082 8.74998C12.3214 8.74998 11.9505 8.90363 11.677 9.17712C11.4035 9.45061 11.2498 9.82154 11.2498 10.2083C11.2498 10.5951 11.4035 10.966 11.677 11.2395C11.9505 11.513 12.3214 11.6666 12.7082 11.6666C13.095 11.6666 13.4659 11.513 13.7394 11.2395C14.0129 10.966 14.1665 10.5951 14.1665 10.2083C14.1665 9.82154 14.0129 9.45061 13.7394 9.17712C13.4659 8.90363 13.095 8.74998 12.7082 8.74998Z" fill="white"/>
</g>
<defs>
<clipPath id="clip0_994_83951">
<rect width="20" height="20" fill="white"/>
</clipPath>
</defs>
</svg>
