<svg width="20" height="21" viewBox="0 0 20 21" fill="none" xmlns="http://www.w3.org/2000/svg">
<g clip-path="url(#clip0_5015_35117)">
<path fill-rule="evenodd" clip-rule="evenodd" d="M10.0013 2.1665C5.3988 2.1665 1.66797 5.89734 1.66797 10.4998C1.66797 15.1023 5.3988 18.8332 10.0013 18.8332C14.6038 18.8332 18.3346 15.1023 18.3346 10.4998C18.3346 5.89734 14.6038 2.1665 10.0013 2.1665ZM11.3955 10.7973C11.335 10.8487 11.2884 10.9145 11.26 10.9887C11.2316 11.0628 11.2223 11.1428 11.233 11.2215L11.5871 13.3482C11.5971 13.4078 11.5939 13.4689 11.5778 13.5273C11.5617 13.5856 11.5331 13.6397 11.494 13.6858C11.455 13.732 11.4063 13.7691 11.3514 13.7945C11.2965 13.8199 11.2368 13.8331 11.1763 13.8332H8.8263C8.76582 13.8331 8.70607 13.8199 8.6512 13.7945C8.59633 13.7691 8.54765 13.732 8.50856 13.6858C8.46947 13.6397 8.44089 13.5856 8.42482 13.5273C8.40874 13.4689 8.40555 13.4078 8.41547 13.3482L8.76964 11.2215C8.78029 11.1428 8.77099 11.0628 8.74259 10.9887C8.71419 10.9145 8.66761 10.8487 8.60714 10.7973C8.29417 10.5153 8.07405 10.1451 7.97582 9.73542C7.87758 9.32576 7.90585 8.89594 8.0569 8.50267C8.20794 8.10941 8.47466 7.77117 8.82186 7.53259C9.16907 7.29401 9.58044 7.16629 10.0017 7.16629C10.423 7.16629 10.8344 7.29401 11.1816 7.53259C11.5288 7.77117 11.7955 8.10941 11.9465 8.50267C12.0976 8.89594 12.1259 9.32576 12.0276 9.73542C11.9294 10.1451 11.7084 10.5153 11.3955 10.7973Z" fill="#A7B1B9"/>
</g>
<defs>
<clipPath id="clip0_5015_35117">
<rect width="20" height="20" fill="white" transform="translate(0 0.5)"/>
</clipPath>
</defs>
</svg>
