<svg width="20" height="21" viewBox="0 0 20 21" fill="none" xmlns="http://www.w3.org/2000/svg">
<g clip-path="url(#clip0_5015_35122)">
<path fill-rule="evenodd" clip-rule="evenodd" d="M10.0013 3.8335C7.6788 3.8335 5.61547 4.881 4.1463 6.17766C3.40964 6.8285 2.8013 7.5585 2.37297 8.28683C1.9513 9.001 1.66797 9.77516 1.66797 10.5002C1.66797 11.2252 1.9513 11.9993 2.37297 12.7135C2.8013 13.441 3.4088 14.1718 4.1463 14.8227C5.61547 16.1193 7.67964 17.1668 10.0013 17.1668C12.3238 17.1668 14.3871 16.1193 15.8563 14.8227C16.5938 14.1718 17.2013 13.441 17.6296 12.7135C18.0513 11.9993 18.3346 11.2252 18.3346 10.5002C18.3346 9.77516 18.0513 9.001 17.6296 8.28683C17.2013 7.55933 16.5938 6.8285 15.8563 6.17766C14.3871 4.881 12.323 3.8335 10.0013 3.8335ZM11.668 10.5002C11.968 10.5002 12.2488 10.421 12.4921 10.2827C12.5365 10.7937 12.4227 11.306 12.166 11.75C11.9094 12.1941 11.5223 12.5485 11.0574 12.7652C10.5925 12.9818 10.0722 13.0502 9.56705 12.9611C9.06193 12.8719 8.59645 12.6296 8.23376 12.2669C7.87106 11.9042 7.62871 11.4387 7.53957 10.9336C7.45043 10.4285 7.51881 9.90815 7.73545 9.44322C7.95208 8.97829 8.30649 8.59124 8.75058 8.33459C9.19468 8.07793 9.70697 7.96409 10.218 8.0085C10.0735 8.26213 9.99813 8.54926 9.99947 8.84116C10.0008 9.13306 10.0788 9.41949 10.2256 9.67178C10.3724 9.92408 10.5829 10.1334 10.8361 10.2788C11.0892 10.4241 11.3761 10.5005 11.668 10.5002Z" fill="#A7B1B9"/>
</g>
<defs>
<clipPath id="clip0_5015_35122">
<rect width="20" height="20" fill="white" transform="translate(0 0.5)"/>
</clipPath>
</defs>
</svg>
