<svg width="18" height="18" viewBox="0 0 18 18" fill="none" xmlns="http://www.w3.org/2000/svg">
<g clip-path="url(#clip0_5039_57995)">
<path fill-rule="evenodd" clip-rule="evenodd" d="M16.1585 3.83318C16.3694 4.04415 16.4879 4.33024 16.4879 4.62855C16.4879 4.92686 16.3694 5.21296 16.1585 5.42393L7.72629 13.8562C7.61486 13.9676 7.48256 14.0561 7.33695 14.1164C7.19134 14.1767 7.03528 14.2077 6.87767 14.2077C6.72006 14.2077 6.56399 14.1767 6.41838 14.1164C6.27278 14.0561 6.14048 13.9676 6.02904 13.8562L1.83954 9.66743C1.73209 9.56365 1.64639 9.43951 1.58743 9.30226C1.52847 9.165 1.49743 9.01738 1.49614 8.868C1.49484 8.71863 1.5233 8.57049 1.57987 8.43223C1.63643 8.29397 1.71997 8.16836 1.8256 8.06273C1.93123 7.9571 2.05684 7.87357 2.19509 7.817C2.33335 7.76044 2.48149 7.73197 2.63087 7.73327C2.78025 7.73457 2.92787 7.7656 3.06512 7.82456C3.20238 7.88352 3.32652 7.96923 3.43029 8.07668L6.87729 11.5237L14.567 3.83318C14.6715 3.72864 14.7956 3.6457 14.9321 3.58912C15.0686 3.53254 15.215 3.50342 15.3628 3.50342C15.5106 3.50342 15.6569 3.53254 15.7935 3.58912C15.93 3.6457 16.0541 3.72864 16.1585 3.83318Z" fill="#60B940"/>
</g>
<defs>
<clipPath id="clip0_5039_57995">
<rect width="18" height="18" fill="white"/>
</clipPath>
</defs>
</svg>
