<svg width="20" height="20" viewBox="0 0 20 20" fill="none" xmlns="http://www.w3.org/2000/svg">
<g clip-path="url(#clip0_761_57521)">
<path d="M7.91406 10C8.90862 10 9.86245 9.60491 10.5657 8.90165C11.269 8.19839 11.6641 7.24456 11.6641 6.25C11.6641 5.25544 11.269 4.30161 10.5657 3.59835C9.86245 2.89509 8.90862 2.5 7.91406 2.5C6.9195 2.5 5.96567 2.89509 5.26241 3.59835C4.55915 4.30161 4.16406 5.25544 4.16406 6.25C4.16406 7.24456 4.55915 8.19839 5.26241 8.90165C5.96567 9.60491 6.9195 10 7.91406 10ZM17.4974 7.5C17.4974 8.16304 17.234 8.79893 16.7652 9.26777C16.2963 9.73661 15.6604 10 14.9974 10C14.3344 10 13.6985 9.73661 13.2296 9.26777C12.7608 8.79893 12.4974 8.16304 12.4974 7.5C12.4974 6.83696 12.7608 6.20107 13.2296 5.73223C13.6985 5.26339 14.3344 5 14.9974 5C15.6604 5 16.2963 5.26339 16.7652 5.73223C17.234 6.20107 17.4974 6.83696 17.4974 7.5ZM7.91406 10.8333C9.5749 10.8333 11.0849 11.34 12.1949 12.055C12.7507 12.4133 13.2266 12.8358 13.5724 13.2967C13.9116 13.7508 14.1641 14.2967 14.1641 14.8808C14.1641 15.51 13.8724 16.0142 13.4441 16.3783C13.0399 16.72 12.5132 16.9417 11.9691 17.0942C10.8749 17.4 9.4274 17.5 7.91406 17.5C6.40073 17.5 4.95323 17.4 3.8599 17.0942C3.3149 16.9417 2.78823 16.72 2.3849 16.3783C1.9549 16.015 1.66406 15.51 1.66406 14.8808C1.66406 14.2958 1.91656 13.7508 2.25573 13.2975C2.60156 12.8358 3.0774 12.4125 3.63323 12.0558C4.74323 11.3392 6.25323 10.8333 7.91406 10.8333ZM14.9974 10.8333C16.0974 10.8333 17.0957 11.1967 17.8307 11.7092C18.5157 12.1867 19.1641 12.94 19.1641 13.8092C19.1641 14.2983 18.9532 14.7033 18.6324 14.9975C18.3349 15.2708 17.9582 15.4375 17.5957 15.5475C16.8707 15.7667 15.9374 15.8333 14.9974 15.8333H14.8282C14.9366 15.5433 14.9974 15.225 14.9974 14.8808C14.9974 14.0558 14.6449 13.3392 14.2391 12.7975C13.8341 12.2567 13.2974 11.7808 12.6982 11.3883C13.4099 11.0241 14.1979 10.8338 14.9974 10.8333Z" fill="white"/>
</g>
<defs>
<clipPath id="clip0_761_57521">
<rect width="20" height="20" fill="white"/>
</clipPath>
</defs>
</svg>
