<svg width="20" height="20" viewBox="0 0 20 20" fill="none" xmlns="http://www.w3.org/2000/svg">
<g clip-path="url(#clip0_761_57528)">
<path d="M14.4822 12.9167H14.1664C13.8349 12.9167 13.5169 13.0484 13.2825 13.2828C13.0481 13.5172 12.9164 13.8352 12.9164 14.1667C12.9164 14.4982 13.0481 14.8161 13.2825 15.0506C13.5169 15.285 13.8349 15.4167 14.1664 15.4167H17.4997C17.8313 15.4167 18.1492 15.285 18.3836 15.0506C18.618 14.8161 18.7497 14.4982 18.7497 14.1667V10.8333C18.7497 10.5018 18.618 10.1839 18.3836 9.94946C18.1492 9.71504 17.8313 9.58334 17.4997 9.58334C17.1682 9.58334 16.8503 9.71504 16.6159 9.94946C16.3814 10.1839 16.2497 10.5018 16.2497 10.8333V11.1492L12.5497 7.44917C12.3154 7.21509 11.9977 7.08361 11.6664 7.08361C11.3352 7.08361 11.0174 7.21509 10.7831 7.44917L7.9164 10.3167L3.38307 5.78334C3.2677 5.66401 3.12973 5.56885 2.97719 5.50341C2.82466 5.43797 2.66062 5.40357 2.49464 5.4022C2.32867 5.40084 2.16409 5.43254 2.0105 5.49547C1.85691 5.55839 1.71738 5.65127 1.60007 5.76869C1.48276 5.88612 1.39001 6.02572 1.32724 6.17937C1.26446 6.33302 1.23291 6.49764 1.23443 6.66361C1.23595 6.82958 1.27051 6.99359 1.33609 7.14606C1.40167 7.29854 1.49696 7.43642 1.6164 7.55168L7.03307 12.9683C7.26745 13.2024 7.58515 13.3339 7.9164 13.3339C8.24765 13.3339 8.56536 13.2024 8.79974 12.9683L11.6664 10.1L14.4822 12.9158V12.9167Z" fill="white"/>
</g>
<defs>
<clipPath id="clip0_761_57528">
<rect width="20" height="20" fill="white"/>
</clipPath>
</defs>
</svg>
