<svg width="20" height="20" viewBox="0 0 20 20" fill="none" xmlns="http://www.w3.org/2000/svg">
<path fill-rule="evenodd" clip-rule="evenodd" d="M6.91688 2.82012L8.33334 4.6324L5 8.89721L2.79985 7.02057C2.60985 6.85851 2.5 6.61844 2.5 6.3653V3.35296C2.5 2.88188 2.8731 2.5 3.33333 2.5H6.26615C6.51931 2.5 6.75873 2.61779 6.91688 2.82012ZM17.5 3.35296C17.5 2.88188 17.1269 2.5 16.6667 2.5H13.7282C13.4783 2.5 13.2415 2.61483 13.0833 2.81283L5.98864 11.6883L4.7559 10.4265C4.43046 10.0934 3.90283 10.0934 3.57739 10.4265C3.25195 10.7596 3.25195 11.2996 3.57739 11.6328L4.82739 12.9122L3.08923 14.6913C2.76379 15.0244 2.7638 15.5645 3.08923 15.8976L4.41072 17.2502C4.73616 17.5833 5.2638 17.5833 5.58924 17.2502L7.32739 15.4711L8.5774 16.7505C8.90283 17.0836 9.43047 17.0836 9.75591 16.7505C10.0813 16.4174 10.0813 15.8774 9.75591 15.5442L8.52317 14.2825L17.1944 7.02076C17.3878 6.85876 17.5 6.61644 17.5 6.36061V3.35296ZM11.9333 14.7144L14.4107 17.2502C14.7362 17.5833 15.2638 17.5833 15.5892 17.2502L16.9107 15.8976C17.2362 15.5645 17.2362 15.0244 16.9107 14.6913L14.6958 12.4242L11.9333 14.7144Z" fill="white"/>
</svg>
